%TF.GenerationSoftware,KiCad,Pcbnew,8.0.5*%
%TF.CreationDate,2024-10-02T19:19:46-04:00*%
%TF.ProjectId,pcb_chip,7063625f-6368-4697-902e-6b696361645f,rev?*%
%TF.SameCoordinates,Original*%
%TF.FileFunction,Drillmap*%
%TF.FilePolarity,Positive*%
%FSLAX45Y45*%
G04 Gerber Fmt 4.5, Leading zero omitted, Abs format (unit mm)*
G04 Created by KiCad (PCBNEW 8.0.5) date 2024-10-02 19:19:46*
%MOMM*%
%LPD*%
G01*
G04 APERTURE LIST*
%ADD10C,0.100000*%
%ADD11C,0.200000*%
%ADD12C,0.284000*%
G04 APERTURE END LIST*
D10*
X14325600Y-8255000D02*
X14325600Y-10541000D01*
X14046200Y-10820400D01*
X11607800Y-10820400D01*
X11328400Y-10541000D01*
X11328400Y-8255000D01*
X11607800Y-7975600D01*
X14046200Y-7975600D01*
X14325600Y-8255000D01*
D11*
D10*
X11476360Y-9947280D02*
X11556360Y-10027280D01*
X11556360Y-9947280D02*
X11476360Y-10027280D01*
X13395320Y-8331200D02*
G75*
G02*
X13315320Y-8331200I-40000J0D01*
G01*
X13315320Y-8331200D02*
G75*
G02*
X13395320Y-8331200I40000J0D01*
G01*
X13395320Y-8585200D02*
G75*
G02*
X13315320Y-8585200I-40000J0D01*
G01*
X13315320Y-8585200D02*
G75*
G02*
X13395320Y-8585200I40000J0D01*
G01*
X13395320Y-8839200D02*
G75*
G02*
X13315320Y-8839200I-40000J0D01*
G01*
X13315320Y-8839200D02*
G75*
G02*
X13395320Y-8839200I40000J0D01*
G01*
X13395320Y-9093200D02*
G75*
G02*
X13315320Y-9093200I-40000J0D01*
G01*
X13315320Y-9093200D02*
G75*
G02*
X13395320Y-9093200I40000J0D01*
G01*
X14157320Y-8331200D02*
G75*
G02*
X14077320Y-8331200I-40000J0D01*
G01*
X14077320Y-8331200D02*
G75*
G02*
X14157320Y-8331200I40000J0D01*
G01*
X14157320Y-8585200D02*
G75*
G02*
X14077320Y-8585200I-40000J0D01*
G01*
X14077320Y-8585200D02*
G75*
G02*
X14157320Y-8585200I40000J0D01*
G01*
X14157320Y-8839200D02*
G75*
G02*
X14077320Y-8839200I-40000J0D01*
G01*
X14077320Y-8839200D02*
G75*
G02*
X14157320Y-8839200I40000J0D01*
G01*
X14157320Y-9093200D02*
G75*
G02*
X14077320Y-9093200I-40000J0D01*
G01*
X14077320Y-9093200D02*
G75*
G02*
X14157320Y-9093200I40000J0D01*
G01*
X11541760Y-9043700D02*
X11541760Y-9143700D01*
X11491760Y-9093700D02*
X11591760Y-9093700D01*
X11541760Y-9297700D02*
X11541760Y-9397700D01*
X11491760Y-9347700D02*
X11591760Y-9347700D01*
X12234100Y-8125500D02*
X12234100Y-8225500D01*
X12184100Y-8175500D02*
X12284100Y-8175500D01*
X12484100Y-8125500D02*
X12484100Y-8225500D01*
X12434100Y-8175500D02*
X12534100Y-8175500D01*
X12517120Y-10567200D02*
X12517120Y-10667200D01*
X12467120Y-10617200D02*
X12567120Y-10617200D01*
X12734100Y-8125500D02*
X12734100Y-8225500D01*
X12684100Y-8175500D02*
X12784100Y-8175500D01*
X12771120Y-10567200D02*
X12771120Y-10667200D01*
X12721120Y-10617200D02*
X12821120Y-10617200D01*
X14097000Y-9386600D02*
X14097000Y-9486600D01*
X14047000Y-9436600D02*
X14147000Y-9436600D01*
X14097000Y-9640600D02*
X14097000Y-9740600D01*
X14047000Y-9690600D02*
X14147000Y-9690600D01*
D12*
X12144510Y-8975910D02*
X12144510Y-8775090D01*
X11943690Y-8775090D01*
X11943690Y-8975910D01*
X12144510Y-8975910D01*
X13024510Y-8975910D02*
X13024510Y-8775090D01*
X12823690Y-8775090D01*
X12823690Y-8975910D01*
X13024510Y-8975910D01*
D11*
X11584177Y-11136884D02*
X11584177Y-10936884D01*
X11584177Y-10936884D02*
X11631796Y-10936884D01*
X11631796Y-10936884D02*
X11660367Y-10946408D01*
X11660367Y-10946408D02*
X11679415Y-10965455D01*
X11679415Y-10965455D02*
X11688939Y-10984503D01*
X11688939Y-10984503D02*
X11698462Y-11022598D01*
X11698462Y-11022598D02*
X11698462Y-11051170D01*
X11698462Y-11051170D02*
X11688939Y-11089265D01*
X11688939Y-11089265D02*
X11679415Y-11108312D01*
X11679415Y-11108312D02*
X11660367Y-11127360D01*
X11660367Y-11127360D02*
X11631796Y-11136884D01*
X11631796Y-11136884D02*
X11584177Y-11136884D01*
X11784177Y-11136884D02*
X11784177Y-11003550D01*
X11784177Y-11041646D02*
X11793701Y-11022598D01*
X11793701Y-11022598D02*
X11803224Y-11013074D01*
X11803224Y-11013074D02*
X11822272Y-11003550D01*
X11822272Y-11003550D02*
X11841320Y-11003550D01*
X11907986Y-11136884D02*
X11907986Y-11003550D01*
X11907986Y-10936884D02*
X11898462Y-10946408D01*
X11898462Y-10946408D02*
X11907986Y-10955931D01*
X11907986Y-10955931D02*
X11917510Y-10946408D01*
X11917510Y-10946408D02*
X11907986Y-10936884D01*
X11907986Y-10936884D02*
X11907986Y-10955931D01*
X12031796Y-11136884D02*
X12012748Y-11127360D01*
X12012748Y-11127360D02*
X12003224Y-11108312D01*
X12003224Y-11108312D02*
X12003224Y-10936884D01*
X12136558Y-11136884D02*
X12117510Y-11127360D01*
X12117510Y-11127360D02*
X12107986Y-11108312D01*
X12107986Y-11108312D02*
X12107986Y-10936884D01*
X12365129Y-11136884D02*
X12365129Y-10936884D01*
X12365129Y-10936884D02*
X12431796Y-11079741D01*
X12431796Y-11079741D02*
X12498462Y-10936884D01*
X12498462Y-10936884D02*
X12498462Y-11136884D01*
X12679415Y-11136884D02*
X12679415Y-11032122D01*
X12679415Y-11032122D02*
X12669891Y-11013074D01*
X12669891Y-11013074D02*
X12650843Y-11003550D01*
X12650843Y-11003550D02*
X12612748Y-11003550D01*
X12612748Y-11003550D02*
X12593701Y-11013074D01*
X12679415Y-11127360D02*
X12660367Y-11136884D01*
X12660367Y-11136884D02*
X12612748Y-11136884D01*
X12612748Y-11136884D02*
X12593701Y-11127360D01*
X12593701Y-11127360D02*
X12584177Y-11108312D01*
X12584177Y-11108312D02*
X12584177Y-11089265D01*
X12584177Y-11089265D02*
X12593701Y-11070217D01*
X12593701Y-11070217D02*
X12612748Y-11060693D01*
X12612748Y-11060693D02*
X12660367Y-11060693D01*
X12660367Y-11060693D02*
X12679415Y-11051170D01*
X12774653Y-11003550D02*
X12774653Y-11203550D01*
X12774653Y-11013074D02*
X12793701Y-11003550D01*
X12793701Y-11003550D02*
X12831796Y-11003550D01*
X12831796Y-11003550D02*
X12850843Y-11013074D01*
X12850843Y-11013074D02*
X12860367Y-11022598D01*
X12860367Y-11022598D02*
X12869891Y-11041646D01*
X12869891Y-11041646D02*
X12869891Y-11098789D01*
X12869891Y-11098789D02*
X12860367Y-11117836D01*
X12860367Y-11117836D02*
X12850843Y-11127360D01*
X12850843Y-11127360D02*
X12831796Y-11136884D01*
X12831796Y-11136884D02*
X12793701Y-11136884D01*
X12793701Y-11136884D02*
X12774653Y-11127360D01*
X12955605Y-11117836D02*
X12965129Y-11127360D01*
X12965129Y-11127360D02*
X12955605Y-11136884D01*
X12955605Y-11136884D02*
X12946082Y-11127360D01*
X12946082Y-11127360D02*
X12955605Y-11117836D01*
X12955605Y-11117836D02*
X12955605Y-11136884D01*
X12955605Y-11013074D02*
X12965129Y-11022598D01*
X12965129Y-11022598D02*
X12955605Y-11032122D01*
X12955605Y-11032122D02*
X12946082Y-11022598D01*
X12946082Y-11022598D02*
X12955605Y-11013074D01*
X12955605Y-11013074D02*
X12955605Y-11032122D01*
D10*
X11243400Y-11425400D02*
X11323400Y-11505400D01*
X11323400Y-11425400D02*
X11243400Y-11505400D01*
D11*
X11622272Y-11356884D02*
X11641320Y-11356884D01*
X11641320Y-11356884D02*
X11660367Y-11366408D01*
X11660367Y-11366408D02*
X11669891Y-11375931D01*
X11669891Y-11375931D02*
X11679415Y-11394979D01*
X11679415Y-11394979D02*
X11688939Y-11433074D01*
X11688939Y-11433074D02*
X11688939Y-11480693D01*
X11688939Y-11480693D02*
X11679415Y-11518788D01*
X11679415Y-11518788D02*
X11669891Y-11537836D01*
X11669891Y-11537836D02*
X11660367Y-11547360D01*
X11660367Y-11547360D02*
X11641320Y-11556884D01*
X11641320Y-11556884D02*
X11622272Y-11556884D01*
X11622272Y-11556884D02*
X11603224Y-11547360D01*
X11603224Y-11547360D02*
X11593701Y-11537836D01*
X11593701Y-11537836D02*
X11584177Y-11518788D01*
X11584177Y-11518788D02*
X11574653Y-11480693D01*
X11574653Y-11480693D02*
X11574653Y-11433074D01*
X11574653Y-11433074D02*
X11584177Y-11394979D01*
X11584177Y-11394979D02*
X11593701Y-11375931D01*
X11593701Y-11375931D02*
X11603224Y-11366408D01*
X11603224Y-11366408D02*
X11622272Y-11356884D01*
X11774653Y-11537836D02*
X11784177Y-11547360D01*
X11784177Y-11547360D02*
X11774653Y-11556884D01*
X11774653Y-11556884D02*
X11765129Y-11547360D01*
X11765129Y-11547360D02*
X11774653Y-11537836D01*
X11774653Y-11537836D02*
X11774653Y-11556884D01*
X11898462Y-11442598D02*
X11879415Y-11433074D01*
X11879415Y-11433074D02*
X11869891Y-11423550D01*
X11869891Y-11423550D02*
X11860367Y-11404503D01*
X11860367Y-11404503D02*
X11860367Y-11394979D01*
X11860367Y-11394979D02*
X11869891Y-11375931D01*
X11869891Y-11375931D02*
X11879415Y-11366408D01*
X11879415Y-11366408D02*
X11898462Y-11356884D01*
X11898462Y-11356884D02*
X11936558Y-11356884D01*
X11936558Y-11356884D02*
X11955605Y-11366408D01*
X11955605Y-11366408D02*
X11965129Y-11375931D01*
X11965129Y-11375931D02*
X11974653Y-11394979D01*
X11974653Y-11394979D02*
X11974653Y-11404503D01*
X11974653Y-11404503D02*
X11965129Y-11423550D01*
X11965129Y-11423550D02*
X11955605Y-11433074D01*
X11955605Y-11433074D02*
X11936558Y-11442598D01*
X11936558Y-11442598D02*
X11898462Y-11442598D01*
X11898462Y-11442598D02*
X11879415Y-11452122D01*
X11879415Y-11452122D02*
X11869891Y-11461646D01*
X11869891Y-11461646D02*
X11860367Y-11480693D01*
X11860367Y-11480693D02*
X11860367Y-11518788D01*
X11860367Y-11518788D02*
X11869891Y-11537836D01*
X11869891Y-11537836D02*
X11879415Y-11547360D01*
X11879415Y-11547360D02*
X11898462Y-11556884D01*
X11898462Y-11556884D02*
X11936558Y-11556884D01*
X11936558Y-11556884D02*
X11955605Y-11547360D01*
X11955605Y-11547360D02*
X11965129Y-11537836D01*
X11965129Y-11537836D02*
X11974653Y-11518788D01*
X11974653Y-11518788D02*
X11974653Y-11480693D01*
X11974653Y-11480693D02*
X11965129Y-11461646D01*
X11965129Y-11461646D02*
X11955605Y-11452122D01*
X11955605Y-11452122D02*
X11936558Y-11442598D01*
X12098462Y-11356884D02*
X12117510Y-11356884D01*
X12117510Y-11356884D02*
X12136558Y-11366408D01*
X12136558Y-11366408D02*
X12146082Y-11375931D01*
X12146082Y-11375931D02*
X12155605Y-11394979D01*
X12155605Y-11394979D02*
X12165129Y-11433074D01*
X12165129Y-11433074D02*
X12165129Y-11480693D01*
X12165129Y-11480693D02*
X12155605Y-11518788D01*
X12155605Y-11518788D02*
X12146082Y-11537836D01*
X12146082Y-11537836D02*
X12136558Y-11547360D01*
X12136558Y-11547360D02*
X12117510Y-11556884D01*
X12117510Y-11556884D02*
X12098462Y-11556884D01*
X12098462Y-11556884D02*
X12079415Y-11547360D01*
X12079415Y-11547360D02*
X12069891Y-11537836D01*
X12069891Y-11537836D02*
X12060367Y-11518788D01*
X12060367Y-11518788D02*
X12050843Y-11480693D01*
X12050843Y-11480693D02*
X12050843Y-11433074D01*
X12050843Y-11433074D02*
X12060367Y-11394979D01*
X12060367Y-11394979D02*
X12069891Y-11375931D01*
X12069891Y-11375931D02*
X12079415Y-11366408D01*
X12079415Y-11366408D02*
X12098462Y-11356884D01*
X12288939Y-11356884D02*
X12307986Y-11356884D01*
X12307986Y-11356884D02*
X12327034Y-11366408D01*
X12327034Y-11366408D02*
X12336558Y-11375931D01*
X12336558Y-11375931D02*
X12346082Y-11394979D01*
X12346082Y-11394979D02*
X12355605Y-11433074D01*
X12355605Y-11433074D02*
X12355605Y-11480693D01*
X12355605Y-11480693D02*
X12346082Y-11518788D01*
X12346082Y-11518788D02*
X12336558Y-11537836D01*
X12336558Y-11537836D02*
X12327034Y-11547360D01*
X12327034Y-11547360D02*
X12307986Y-11556884D01*
X12307986Y-11556884D02*
X12288939Y-11556884D01*
X12288939Y-11556884D02*
X12269891Y-11547360D01*
X12269891Y-11547360D02*
X12260367Y-11537836D01*
X12260367Y-11537836D02*
X12250843Y-11518788D01*
X12250843Y-11518788D02*
X12241320Y-11480693D01*
X12241320Y-11480693D02*
X12241320Y-11433074D01*
X12241320Y-11433074D02*
X12250843Y-11394979D01*
X12250843Y-11394979D02*
X12260367Y-11375931D01*
X12260367Y-11375931D02*
X12269891Y-11366408D01*
X12269891Y-11366408D02*
X12288939Y-11356884D01*
X12441320Y-11556884D02*
X12441320Y-11423550D01*
X12441320Y-11442598D02*
X12450843Y-11433074D01*
X12450843Y-11433074D02*
X12469891Y-11423550D01*
X12469891Y-11423550D02*
X12498463Y-11423550D01*
X12498463Y-11423550D02*
X12517510Y-11433074D01*
X12517510Y-11433074D02*
X12527034Y-11452122D01*
X12527034Y-11452122D02*
X12527034Y-11556884D01*
X12527034Y-11452122D02*
X12536558Y-11433074D01*
X12536558Y-11433074D02*
X12555605Y-11423550D01*
X12555605Y-11423550D02*
X12584177Y-11423550D01*
X12584177Y-11423550D02*
X12603224Y-11433074D01*
X12603224Y-11433074D02*
X12612748Y-11452122D01*
X12612748Y-11452122D02*
X12612748Y-11556884D01*
X12707986Y-11556884D02*
X12707986Y-11423550D01*
X12707986Y-11442598D02*
X12717510Y-11433074D01*
X12717510Y-11433074D02*
X12736558Y-11423550D01*
X12736558Y-11423550D02*
X12765129Y-11423550D01*
X12765129Y-11423550D02*
X12784177Y-11433074D01*
X12784177Y-11433074D02*
X12793701Y-11452122D01*
X12793701Y-11452122D02*
X12793701Y-11556884D01*
X12793701Y-11452122D02*
X12803224Y-11433074D01*
X12803224Y-11433074D02*
X12822272Y-11423550D01*
X12822272Y-11423550D02*
X12850843Y-11423550D01*
X12850843Y-11423550D02*
X12869891Y-11433074D01*
X12869891Y-11433074D02*
X12879415Y-11452122D01*
X12879415Y-11452122D02*
X12879415Y-11556884D01*
X13269891Y-11347360D02*
X13098463Y-11604503D01*
X13527034Y-11356884D02*
X13546082Y-11356884D01*
X13546082Y-11356884D02*
X13565129Y-11366408D01*
X13565129Y-11366408D02*
X13574653Y-11375931D01*
X13574653Y-11375931D02*
X13584177Y-11394979D01*
X13584177Y-11394979D02*
X13593701Y-11433074D01*
X13593701Y-11433074D02*
X13593701Y-11480693D01*
X13593701Y-11480693D02*
X13584177Y-11518788D01*
X13584177Y-11518788D02*
X13574653Y-11537836D01*
X13574653Y-11537836D02*
X13565129Y-11547360D01*
X13565129Y-11547360D02*
X13546082Y-11556884D01*
X13546082Y-11556884D02*
X13527034Y-11556884D01*
X13527034Y-11556884D02*
X13507986Y-11547360D01*
X13507986Y-11547360D02*
X13498463Y-11537836D01*
X13498463Y-11537836D02*
X13488939Y-11518788D01*
X13488939Y-11518788D02*
X13479415Y-11480693D01*
X13479415Y-11480693D02*
X13479415Y-11433074D01*
X13479415Y-11433074D02*
X13488939Y-11394979D01*
X13488939Y-11394979D02*
X13498463Y-11375931D01*
X13498463Y-11375931D02*
X13507986Y-11366408D01*
X13507986Y-11366408D02*
X13527034Y-11356884D01*
X13679415Y-11537836D02*
X13688939Y-11547360D01*
X13688939Y-11547360D02*
X13679415Y-11556884D01*
X13679415Y-11556884D02*
X13669891Y-11547360D01*
X13669891Y-11547360D02*
X13679415Y-11537836D01*
X13679415Y-11537836D02*
X13679415Y-11556884D01*
X13812748Y-11356884D02*
X13831796Y-11356884D01*
X13831796Y-11356884D02*
X13850844Y-11366408D01*
X13850844Y-11366408D02*
X13860367Y-11375931D01*
X13860367Y-11375931D02*
X13869891Y-11394979D01*
X13869891Y-11394979D02*
X13879415Y-11433074D01*
X13879415Y-11433074D02*
X13879415Y-11480693D01*
X13879415Y-11480693D02*
X13869891Y-11518788D01*
X13869891Y-11518788D02*
X13860367Y-11537836D01*
X13860367Y-11537836D02*
X13850844Y-11547360D01*
X13850844Y-11547360D02*
X13831796Y-11556884D01*
X13831796Y-11556884D02*
X13812748Y-11556884D01*
X13812748Y-11556884D02*
X13793701Y-11547360D01*
X13793701Y-11547360D02*
X13784177Y-11537836D01*
X13784177Y-11537836D02*
X13774653Y-11518788D01*
X13774653Y-11518788D02*
X13765129Y-11480693D01*
X13765129Y-11480693D02*
X13765129Y-11433074D01*
X13765129Y-11433074D02*
X13774653Y-11394979D01*
X13774653Y-11394979D02*
X13784177Y-11375931D01*
X13784177Y-11375931D02*
X13793701Y-11366408D01*
X13793701Y-11366408D02*
X13812748Y-11356884D01*
X13946082Y-11356884D02*
X14069891Y-11356884D01*
X14069891Y-11356884D02*
X14003225Y-11433074D01*
X14003225Y-11433074D02*
X14031796Y-11433074D01*
X14031796Y-11433074D02*
X14050844Y-11442598D01*
X14050844Y-11442598D02*
X14060367Y-11452122D01*
X14060367Y-11452122D02*
X14069891Y-11471169D01*
X14069891Y-11471169D02*
X14069891Y-11518788D01*
X14069891Y-11518788D02*
X14060367Y-11537836D01*
X14060367Y-11537836D02*
X14050844Y-11547360D01*
X14050844Y-11547360D02*
X14031796Y-11556884D01*
X14031796Y-11556884D02*
X13974653Y-11556884D01*
X13974653Y-11556884D02*
X13955606Y-11547360D01*
X13955606Y-11547360D02*
X13946082Y-11537836D01*
X14260367Y-11556884D02*
X14146082Y-11556884D01*
X14203225Y-11556884D02*
X14203225Y-11356884D01*
X14203225Y-11356884D02*
X14184177Y-11385455D01*
X14184177Y-11385455D02*
X14165129Y-11404503D01*
X14165129Y-11404503D02*
X14146082Y-11414027D01*
X14441320Y-11356884D02*
X14346082Y-11356884D01*
X14346082Y-11356884D02*
X14336558Y-11452122D01*
X14336558Y-11452122D02*
X14346082Y-11442598D01*
X14346082Y-11442598D02*
X14365129Y-11433074D01*
X14365129Y-11433074D02*
X14412748Y-11433074D01*
X14412748Y-11433074D02*
X14431796Y-11442598D01*
X14431796Y-11442598D02*
X14441320Y-11452122D01*
X14441320Y-11452122D02*
X14450844Y-11471169D01*
X14450844Y-11471169D02*
X14450844Y-11518788D01*
X14450844Y-11518788D02*
X14441320Y-11537836D01*
X14441320Y-11537836D02*
X14431796Y-11547360D01*
X14431796Y-11547360D02*
X14412748Y-11556884D01*
X14412748Y-11556884D02*
X14365129Y-11556884D01*
X14365129Y-11556884D02*
X14346082Y-11547360D01*
X14346082Y-11547360D02*
X14336558Y-11537836D01*
X14527034Y-11356884D02*
X14527034Y-11394979D01*
X14603225Y-11356884D02*
X14603225Y-11394979D01*
X14898463Y-11633074D02*
X14888939Y-11623550D01*
X14888939Y-11623550D02*
X14869891Y-11594979D01*
X14869891Y-11594979D02*
X14860368Y-11575931D01*
X14860368Y-11575931D02*
X14850844Y-11547360D01*
X14850844Y-11547360D02*
X14841320Y-11499741D01*
X14841320Y-11499741D02*
X14841320Y-11461646D01*
X14841320Y-11461646D02*
X14850844Y-11414027D01*
X14850844Y-11414027D02*
X14860368Y-11385455D01*
X14860368Y-11385455D02*
X14869891Y-11366408D01*
X14869891Y-11366408D02*
X14888939Y-11337836D01*
X14888939Y-11337836D02*
X14898463Y-11328312D01*
X15079415Y-11556884D02*
X14965129Y-11556884D01*
X15022272Y-11556884D02*
X15022272Y-11356884D01*
X15022272Y-11356884D02*
X15003225Y-11385455D01*
X15003225Y-11385455D02*
X14984177Y-11404503D01*
X14984177Y-11404503D02*
X14965129Y-11414027D01*
X15317510Y-11556884D02*
X15317510Y-11356884D01*
X15403225Y-11556884D02*
X15403225Y-11452122D01*
X15403225Y-11452122D02*
X15393701Y-11433074D01*
X15393701Y-11433074D02*
X15374653Y-11423550D01*
X15374653Y-11423550D02*
X15346082Y-11423550D01*
X15346082Y-11423550D02*
X15327034Y-11433074D01*
X15327034Y-11433074D02*
X15317510Y-11442598D01*
X15527034Y-11556884D02*
X15507987Y-11547360D01*
X15507987Y-11547360D02*
X15498463Y-11537836D01*
X15498463Y-11537836D02*
X15488939Y-11518788D01*
X15488939Y-11518788D02*
X15488939Y-11461646D01*
X15488939Y-11461646D02*
X15498463Y-11442598D01*
X15498463Y-11442598D02*
X15507987Y-11433074D01*
X15507987Y-11433074D02*
X15527034Y-11423550D01*
X15527034Y-11423550D02*
X15555606Y-11423550D01*
X15555606Y-11423550D02*
X15574653Y-11433074D01*
X15574653Y-11433074D02*
X15584177Y-11442598D01*
X15584177Y-11442598D02*
X15593701Y-11461646D01*
X15593701Y-11461646D02*
X15593701Y-11518788D01*
X15593701Y-11518788D02*
X15584177Y-11537836D01*
X15584177Y-11537836D02*
X15574653Y-11547360D01*
X15574653Y-11547360D02*
X15555606Y-11556884D01*
X15555606Y-11556884D02*
X15527034Y-11556884D01*
X15707987Y-11556884D02*
X15688939Y-11547360D01*
X15688939Y-11547360D02*
X15679415Y-11528312D01*
X15679415Y-11528312D02*
X15679415Y-11356884D01*
X15860368Y-11547360D02*
X15841320Y-11556884D01*
X15841320Y-11556884D02*
X15803225Y-11556884D01*
X15803225Y-11556884D02*
X15784177Y-11547360D01*
X15784177Y-11547360D02*
X15774653Y-11528312D01*
X15774653Y-11528312D02*
X15774653Y-11452122D01*
X15774653Y-11452122D02*
X15784177Y-11433074D01*
X15784177Y-11433074D02*
X15803225Y-11423550D01*
X15803225Y-11423550D02*
X15841320Y-11423550D01*
X15841320Y-11423550D02*
X15860368Y-11433074D01*
X15860368Y-11433074D02*
X15869891Y-11452122D01*
X15869891Y-11452122D02*
X15869891Y-11471169D01*
X15869891Y-11471169D02*
X15774653Y-11490217D01*
X15936558Y-11633074D02*
X15946082Y-11623550D01*
X15946082Y-11623550D02*
X15965130Y-11594979D01*
X15965130Y-11594979D02*
X15974653Y-11575931D01*
X15974653Y-11575931D02*
X15984177Y-11547360D01*
X15984177Y-11547360D02*
X15993701Y-11499741D01*
X15993701Y-11499741D02*
X15993701Y-11461646D01*
X15993701Y-11461646D02*
X15984177Y-11414027D01*
X15984177Y-11414027D02*
X15974653Y-11385455D01*
X15974653Y-11385455D02*
X15965130Y-11366408D01*
X15965130Y-11366408D02*
X15946082Y-11337836D01*
X15946082Y-11337836D02*
X15936558Y-11328312D01*
D10*
X11323400Y-11729400D02*
G75*
G02*
X11243400Y-11729400I-40000J0D01*
G01*
X11243400Y-11729400D02*
G75*
G02*
X11323400Y-11729400I40000J0D01*
G01*
D11*
X11622272Y-11620884D02*
X11641320Y-11620884D01*
X11641320Y-11620884D02*
X11660367Y-11630408D01*
X11660367Y-11630408D02*
X11669891Y-11639931D01*
X11669891Y-11639931D02*
X11679415Y-11658979D01*
X11679415Y-11658979D02*
X11688939Y-11697074D01*
X11688939Y-11697074D02*
X11688939Y-11744693D01*
X11688939Y-11744693D02*
X11679415Y-11782788D01*
X11679415Y-11782788D02*
X11669891Y-11801836D01*
X11669891Y-11801836D02*
X11660367Y-11811360D01*
X11660367Y-11811360D02*
X11641320Y-11820884D01*
X11641320Y-11820884D02*
X11622272Y-11820884D01*
X11622272Y-11820884D02*
X11603224Y-11811360D01*
X11603224Y-11811360D02*
X11593701Y-11801836D01*
X11593701Y-11801836D02*
X11584177Y-11782788D01*
X11584177Y-11782788D02*
X11574653Y-11744693D01*
X11574653Y-11744693D02*
X11574653Y-11697074D01*
X11574653Y-11697074D02*
X11584177Y-11658979D01*
X11584177Y-11658979D02*
X11593701Y-11639931D01*
X11593701Y-11639931D02*
X11603224Y-11630408D01*
X11603224Y-11630408D02*
X11622272Y-11620884D01*
X11774653Y-11801836D02*
X11784177Y-11811360D01*
X11784177Y-11811360D02*
X11774653Y-11820884D01*
X11774653Y-11820884D02*
X11765129Y-11811360D01*
X11765129Y-11811360D02*
X11774653Y-11801836D01*
X11774653Y-11801836D02*
X11774653Y-11820884D01*
X11898462Y-11706598D02*
X11879415Y-11697074D01*
X11879415Y-11697074D02*
X11869891Y-11687550D01*
X11869891Y-11687550D02*
X11860367Y-11668503D01*
X11860367Y-11668503D02*
X11860367Y-11658979D01*
X11860367Y-11658979D02*
X11869891Y-11639931D01*
X11869891Y-11639931D02*
X11879415Y-11630408D01*
X11879415Y-11630408D02*
X11898462Y-11620884D01*
X11898462Y-11620884D02*
X11936558Y-11620884D01*
X11936558Y-11620884D02*
X11955605Y-11630408D01*
X11955605Y-11630408D02*
X11965129Y-11639931D01*
X11965129Y-11639931D02*
X11974653Y-11658979D01*
X11974653Y-11658979D02*
X11974653Y-11668503D01*
X11974653Y-11668503D02*
X11965129Y-11687550D01*
X11965129Y-11687550D02*
X11955605Y-11697074D01*
X11955605Y-11697074D02*
X11936558Y-11706598D01*
X11936558Y-11706598D02*
X11898462Y-11706598D01*
X11898462Y-11706598D02*
X11879415Y-11716122D01*
X11879415Y-11716122D02*
X11869891Y-11725646D01*
X11869891Y-11725646D02*
X11860367Y-11744693D01*
X11860367Y-11744693D02*
X11860367Y-11782788D01*
X11860367Y-11782788D02*
X11869891Y-11801836D01*
X11869891Y-11801836D02*
X11879415Y-11811360D01*
X11879415Y-11811360D02*
X11898462Y-11820884D01*
X11898462Y-11820884D02*
X11936558Y-11820884D01*
X11936558Y-11820884D02*
X11955605Y-11811360D01*
X11955605Y-11811360D02*
X11965129Y-11801836D01*
X11965129Y-11801836D02*
X11974653Y-11782788D01*
X11974653Y-11782788D02*
X11974653Y-11744693D01*
X11974653Y-11744693D02*
X11965129Y-11725646D01*
X11965129Y-11725646D02*
X11955605Y-11716122D01*
X11955605Y-11716122D02*
X11936558Y-11706598D01*
X12098462Y-11620884D02*
X12117510Y-11620884D01*
X12117510Y-11620884D02*
X12136558Y-11630408D01*
X12136558Y-11630408D02*
X12146082Y-11639931D01*
X12146082Y-11639931D02*
X12155605Y-11658979D01*
X12155605Y-11658979D02*
X12165129Y-11697074D01*
X12165129Y-11697074D02*
X12165129Y-11744693D01*
X12165129Y-11744693D02*
X12155605Y-11782788D01*
X12155605Y-11782788D02*
X12146082Y-11801836D01*
X12146082Y-11801836D02*
X12136558Y-11811360D01*
X12136558Y-11811360D02*
X12117510Y-11820884D01*
X12117510Y-11820884D02*
X12098462Y-11820884D01*
X12098462Y-11820884D02*
X12079415Y-11811360D01*
X12079415Y-11811360D02*
X12069891Y-11801836D01*
X12069891Y-11801836D02*
X12060367Y-11782788D01*
X12060367Y-11782788D02*
X12050843Y-11744693D01*
X12050843Y-11744693D02*
X12050843Y-11697074D01*
X12050843Y-11697074D02*
X12060367Y-11658979D01*
X12060367Y-11658979D02*
X12069891Y-11639931D01*
X12069891Y-11639931D02*
X12079415Y-11630408D01*
X12079415Y-11630408D02*
X12098462Y-11620884D01*
X12288939Y-11620884D02*
X12307986Y-11620884D01*
X12307986Y-11620884D02*
X12327034Y-11630408D01*
X12327034Y-11630408D02*
X12336558Y-11639931D01*
X12336558Y-11639931D02*
X12346082Y-11658979D01*
X12346082Y-11658979D02*
X12355605Y-11697074D01*
X12355605Y-11697074D02*
X12355605Y-11744693D01*
X12355605Y-11744693D02*
X12346082Y-11782788D01*
X12346082Y-11782788D02*
X12336558Y-11801836D01*
X12336558Y-11801836D02*
X12327034Y-11811360D01*
X12327034Y-11811360D02*
X12307986Y-11820884D01*
X12307986Y-11820884D02*
X12288939Y-11820884D01*
X12288939Y-11820884D02*
X12269891Y-11811360D01*
X12269891Y-11811360D02*
X12260367Y-11801836D01*
X12260367Y-11801836D02*
X12250843Y-11782788D01*
X12250843Y-11782788D02*
X12241320Y-11744693D01*
X12241320Y-11744693D02*
X12241320Y-11697074D01*
X12241320Y-11697074D02*
X12250843Y-11658979D01*
X12250843Y-11658979D02*
X12260367Y-11639931D01*
X12260367Y-11639931D02*
X12269891Y-11630408D01*
X12269891Y-11630408D02*
X12288939Y-11620884D01*
X12441320Y-11820884D02*
X12441320Y-11687550D01*
X12441320Y-11706598D02*
X12450843Y-11697074D01*
X12450843Y-11697074D02*
X12469891Y-11687550D01*
X12469891Y-11687550D02*
X12498463Y-11687550D01*
X12498463Y-11687550D02*
X12517510Y-11697074D01*
X12517510Y-11697074D02*
X12527034Y-11716122D01*
X12527034Y-11716122D02*
X12527034Y-11820884D01*
X12527034Y-11716122D02*
X12536558Y-11697074D01*
X12536558Y-11697074D02*
X12555605Y-11687550D01*
X12555605Y-11687550D02*
X12584177Y-11687550D01*
X12584177Y-11687550D02*
X12603224Y-11697074D01*
X12603224Y-11697074D02*
X12612748Y-11716122D01*
X12612748Y-11716122D02*
X12612748Y-11820884D01*
X12707986Y-11820884D02*
X12707986Y-11687550D01*
X12707986Y-11706598D02*
X12717510Y-11697074D01*
X12717510Y-11697074D02*
X12736558Y-11687550D01*
X12736558Y-11687550D02*
X12765129Y-11687550D01*
X12765129Y-11687550D02*
X12784177Y-11697074D01*
X12784177Y-11697074D02*
X12793701Y-11716122D01*
X12793701Y-11716122D02*
X12793701Y-11820884D01*
X12793701Y-11716122D02*
X12803224Y-11697074D01*
X12803224Y-11697074D02*
X12822272Y-11687550D01*
X12822272Y-11687550D02*
X12850843Y-11687550D01*
X12850843Y-11687550D02*
X12869891Y-11697074D01*
X12869891Y-11697074D02*
X12879415Y-11716122D01*
X12879415Y-11716122D02*
X12879415Y-11820884D01*
X13269891Y-11611360D02*
X13098463Y-11868503D01*
X13527034Y-11620884D02*
X13546082Y-11620884D01*
X13546082Y-11620884D02*
X13565129Y-11630408D01*
X13565129Y-11630408D02*
X13574653Y-11639931D01*
X13574653Y-11639931D02*
X13584177Y-11658979D01*
X13584177Y-11658979D02*
X13593701Y-11697074D01*
X13593701Y-11697074D02*
X13593701Y-11744693D01*
X13593701Y-11744693D02*
X13584177Y-11782788D01*
X13584177Y-11782788D02*
X13574653Y-11801836D01*
X13574653Y-11801836D02*
X13565129Y-11811360D01*
X13565129Y-11811360D02*
X13546082Y-11820884D01*
X13546082Y-11820884D02*
X13527034Y-11820884D01*
X13527034Y-11820884D02*
X13507986Y-11811360D01*
X13507986Y-11811360D02*
X13498463Y-11801836D01*
X13498463Y-11801836D02*
X13488939Y-11782788D01*
X13488939Y-11782788D02*
X13479415Y-11744693D01*
X13479415Y-11744693D02*
X13479415Y-11697074D01*
X13479415Y-11697074D02*
X13488939Y-11658979D01*
X13488939Y-11658979D02*
X13498463Y-11639931D01*
X13498463Y-11639931D02*
X13507986Y-11630408D01*
X13507986Y-11630408D02*
X13527034Y-11620884D01*
X13679415Y-11801836D02*
X13688939Y-11811360D01*
X13688939Y-11811360D02*
X13679415Y-11820884D01*
X13679415Y-11820884D02*
X13669891Y-11811360D01*
X13669891Y-11811360D02*
X13679415Y-11801836D01*
X13679415Y-11801836D02*
X13679415Y-11820884D01*
X13812748Y-11620884D02*
X13831796Y-11620884D01*
X13831796Y-11620884D02*
X13850844Y-11630408D01*
X13850844Y-11630408D02*
X13860367Y-11639931D01*
X13860367Y-11639931D02*
X13869891Y-11658979D01*
X13869891Y-11658979D02*
X13879415Y-11697074D01*
X13879415Y-11697074D02*
X13879415Y-11744693D01*
X13879415Y-11744693D02*
X13869891Y-11782788D01*
X13869891Y-11782788D02*
X13860367Y-11801836D01*
X13860367Y-11801836D02*
X13850844Y-11811360D01*
X13850844Y-11811360D02*
X13831796Y-11820884D01*
X13831796Y-11820884D02*
X13812748Y-11820884D01*
X13812748Y-11820884D02*
X13793701Y-11811360D01*
X13793701Y-11811360D02*
X13784177Y-11801836D01*
X13784177Y-11801836D02*
X13774653Y-11782788D01*
X13774653Y-11782788D02*
X13765129Y-11744693D01*
X13765129Y-11744693D02*
X13765129Y-11697074D01*
X13765129Y-11697074D02*
X13774653Y-11658979D01*
X13774653Y-11658979D02*
X13784177Y-11639931D01*
X13784177Y-11639931D02*
X13793701Y-11630408D01*
X13793701Y-11630408D02*
X13812748Y-11620884D01*
X13946082Y-11620884D02*
X14069891Y-11620884D01*
X14069891Y-11620884D02*
X14003225Y-11697074D01*
X14003225Y-11697074D02*
X14031796Y-11697074D01*
X14031796Y-11697074D02*
X14050844Y-11706598D01*
X14050844Y-11706598D02*
X14060367Y-11716122D01*
X14060367Y-11716122D02*
X14069891Y-11735169D01*
X14069891Y-11735169D02*
X14069891Y-11782788D01*
X14069891Y-11782788D02*
X14060367Y-11801836D01*
X14060367Y-11801836D02*
X14050844Y-11811360D01*
X14050844Y-11811360D02*
X14031796Y-11820884D01*
X14031796Y-11820884D02*
X13974653Y-11820884D01*
X13974653Y-11820884D02*
X13955606Y-11811360D01*
X13955606Y-11811360D02*
X13946082Y-11801836D01*
X14260367Y-11820884D02*
X14146082Y-11820884D01*
X14203225Y-11820884D02*
X14203225Y-11620884D01*
X14203225Y-11620884D02*
X14184177Y-11649455D01*
X14184177Y-11649455D02*
X14165129Y-11668503D01*
X14165129Y-11668503D02*
X14146082Y-11678027D01*
X14441320Y-11620884D02*
X14346082Y-11620884D01*
X14346082Y-11620884D02*
X14336558Y-11716122D01*
X14336558Y-11716122D02*
X14346082Y-11706598D01*
X14346082Y-11706598D02*
X14365129Y-11697074D01*
X14365129Y-11697074D02*
X14412748Y-11697074D01*
X14412748Y-11697074D02*
X14431796Y-11706598D01*
X14431796Y-11706598D02*
X14441320Y-11716122D01*
X14441320Y-11716122D02*
X14450844Y-11735169D01*
X14450844Y-11735169D02*
X14450844Y-11782788D01*
X14450844Y-11782788D02*
X14441320Y-11801836D01*
X14441320Y-11801836D02*
X14431796Y-11811360D01*
X14431796Y-11811360D02*
X14412748Y-11820884D01*
X14412748Y-11820884D02*
X14365129Y-11820884D01*
X14365129Y-11820884D02*
X14346082Y-11811360D01*
X14346082Y-11811360D02*
X14336558Y-11801836D01*
X14527034Y-11620884D02*
X14527034Y-11658979D01*
X14603225Y-11620884D02*
X14603225Y-11658979D01*
X14898463Y-11897074D02*
X14888939Y-11887550D01*
X14888939Y-11887550D02*
X14869891Y-11858979D01*
X14869891Y-11858979D02*
X14860368Y-11839931D01*
X14860368Y-11839931D02*
X14850844Y-11811360D01*
X14850844Y-11811360D02*
X14841320Y-11763741D01*
X14841320Y-11763741D02*
X14841320Y-11725646D01*
X14841320Y-11725646D02*
X14850844Y-11678027D01*
X14850844Y-11678027D02*
X14860368Y-11649455D01*
X14860368Y-11649455D02*
X14869891Y-11630408D01*
X14869891Y-11630408D02*
X14888939Y-11601836D01*
X14888939Y-11601836D02*
X14898463Y-11592312D01*
X15003225Y-11706598D02*
X14984177Y-11697074D01*
X14984177Y-11697074D02*
X14974653Y-11687550D01*
X14974653Y-11687550D02*
X14965129Y-11668503D01*
X14965129Y-11668503D02*
X14965129Y-11658979D01*
X14965129Y-11658979D02*
X14974653Y-11639931D01*
X14974653Y-11639931D02*
X14984177Y-11630408D01*
X14984177Y-11630408D02*
X15003225Y-11620884D01*
X15003225Y-11620884D02*
X15041320Y-11620884D01*
X15041320Y-11620884D02*
X15060368Y-11630408D01*
X15060368Y-11630408D02*
X15069891Y-11639931D01*
X15069891Y-11639931D02*
X15079415Y-11658979D01*
X15079415Y-11658979D02*
X15079415Y-11668503D01*
X15079415Y-11668503D02*
X15069891Y-11687550D01*
X15069891Y-11687550D02*
X15060368Y-11697074D01*
X15060368Y-11697074D02*
X15041320Y-11706598D01*
X15041320Y-11706598D02*
X15003225Y-11706598D01*
X15003225Y-11706598D02*
X14984177Y-11716122D01*
X14984177Y-11716122D02*
X14974653Y-11725646D01*
X14974653Y-11725646D02*
X14965129Y-11744693D01*
X14965129Y-11744693D02*
X14965129Y-11782788D01*
X14965129Y-11782788D02*
X14974653Y-11801836D01*
X14974653Y-11801836D02*
X14984177Y-11811360D01*
X14984177Y-11811360D02*
X15003225Y-11820884D01*
X15003225Y-11820884D02*
X15041320Y-11820884D01*
X15041320Y-11820884D02*
X15060368Y-11811360D01*
X15060368Y-11811360D02*
X15069891Y-11801836D01*
X15069891Y-11801836D02*
X15079415Y-11782788D01*
X15079415Y-11782788D02*
X15079415Y-11744693D01*
X15079415Y-11744693D02*
X15069891Y-11725646D01*
X15069891Y-11725646D02*
X15060368Y-11716122D01*
X15060368Y-11716122D02*
X15041320Y-11706598D01*
X15317510Y-11820884D02*
X15317510Y-11620884D01*
X15403225Y-11820884D02*
X15403225Y-11716122D01*
X15403225Y-11716122D02*
X15393701Y-11697074D01*
X15393701Y-11697074D02*
X15374653Y-11687550D01*
X15374653Y-11687550D02*
X15346082Y-11687550D01*
X15346082Y-11687550D02*
X15327034Y-11697074D01*
X15327034Y-11697074D02*
X15317510Y-11706598D01*
X15527034Y-11820884D02*
X15507987Y-11811360D01*
X15507987Y-11811360D02*
X15498463Y-11801836D01*
X15498463Y-11801836D02*
X15488939Y-11782788D01*
X15488939Y-11782788D02*
X15488939Y-11725646D01*
X15488939Y-11725646D02*
X15498463Y-11706598D01*
X15498463Y-11706598D02*
X15507987Y-11697074D01*
X15507987Y-11697074D02*
X15527034Y-11687550D01*
X15527034Y-11687550D02*
X15555606Y-11687550D01*
X15555606Y-11687550D02*
X15574653Y-11697074D01*
X15574653Y-11697074D02*
X15584177Y-11706598D01*
X15584177Y-11706598D02*
X15593701Y-11725646D01*
X15593701Y-11725646D02*
X15593701Y-11782788D01*
X15593701Y-11782788D02*
X15584177Y-11801836D01*
X15584177Y-11801836D02*
X15574653Y-11811360D01*
X15574653Y-11811360D02*
X15555606Y-11820884D01*
X15555606Y-11820884D02*
X15527034Y-11820884D01*
X15707987Y-11820884D02*
X15688939Y-11811360D01*
X15688939Y-11811360D02*
X15679415Y-11792312D01*
X15679415Y-11792312D02*
X15679415Y-11620884D01*
X15860368Y-11811360D02*
X15841320Y-11820884D01*
X15841320Y-11820884D02*
X15803225Y-11820884D01*
X15803225Y-11820884D02*
X15784177Y-11811360D01*
X15784177Y-11811360D02*
X15774653Y-11792312D01*
X15774653Y-11792312D02*
X15774653Y-11716122D01*
X15774653Y-11716122D02*
X15784177Y-11697074D01*
X15784177Y-11697074D02*
X15803225Y-11687550D01*
X15803225Y-11687550D02*
X15841320Y-11687550D01*
X15841320Y-11687550D02*
X15860368Y-11697074D01*
X15860368Y-11697074D02*
X15869891Y-11716122D01*
X15869891Y-11716122D02*
X15869891Y-11735169D01*
X15869891Y-11735169D02*
X15774653Y-11754217D01*
X15946082Y-11811360D02*
X15965130Y-11820884D01*
X15965130Y-11820884D02*
X16003225Y-11820884D01*
X16003225Y-11820884D02*
X16022272Y-11811360D01*
X16022272Y-11811360D02*
X16031796Y-11792312D01*
X16031796Y-11792312D02*
X16031796Y-11782788D01*
X16031796Y-11782788D02*
X16022272Y-11763741D01*
X16022272Y-11763741D02*
X16003225Y-11754217D01*
X16003225Y-11754217D02*
X15974653Y-11754217D01*
X15974653Y-11754217D02*
X15955606Y-11744693D01*
X15955606Y-11744693D02*
X15946082Y-11725646D01*
X15946082Y-11725646D02*
X15946082Y-11716122D01*
X15946082Y-11716122D02*
X15955606Y-11697074D01*
X15955606Y-11697074D02*
X15974653Y-11687550D01*
X15974653Y-11687550D02*
X16003225Y-11687550D01*
X16003225Y-11687550D02*
X16022272Y-11697074D01*
X16098463Y-11897074D02*
X16107987Y-11887550D01*
X16107987Y-11887550D02*
X16127034Y-11858979D01*
X16127034Y-11858979D02*
X16136558Y-11839931D01*
X16136558Y-11839931D02*
X16146082Y-11811360D01*
X16146082Y-11811360D02*
X16155606Y-11763741D01*
X16155606Y-11763741D02*
X16155606Y-11725646D01*
X16155606Y-11725646D02*
X16146082Y-11678027D01*
X16146082Y-11678027D02*
X16136558Y-11649455D01*
X16136558Y-11649455D02*
X16127034Y-11630408D01*
X16127034Y-11630408D02*
X16107987Y-11601836D01*
X16107987Y-11601836D02*
X16098463Y-11592312D01*
D10*
X11273400Y-11943400D02*
X11273400Y-12043400D01*
X11223400Y-11993400D02*
X11323400Y-11993400D01*
D11*
X11688939Y-12084884D02*
X11574653Y-12084884D01*
X11631796Y-12084884D02*
X11631796Y-11884884D01*
X11631796Y-11884884D02*
X11612748Y-11913455D01*
X11612748Y-11913455D02*
X11593701Y-11932503D01*
X11593701Y-11932503D02*
X11574653Y-11942027D01*
X11774653Y-12065836D02*
X11784177Y-12075360D01*
X11784177Y-12075360D02*
X11774653Y-12084884D01*
X11774653Y-12084884D02*
X11765129Y-12075360D01*
X11765129Y-12075360D02*
X11774653Y-12065836D01*
X11774653Y-12065836D02*
X11774653Y-12084884D01*
X11907986Y-11884884D02*
X11927034Y-11884884D01*
X11927034Y-11884884D02*
X11946082Y-11894408D01*
X11946082Y-11894408D02*
X11955605Y-11903931D01*
X11955605Y-11903931D02*
X11965129Y-11922979D01*
X11965129Y-11922979D02*
X11974653Y-11961074D01*
X11974653Y-11961074D02*
X11974653Y-12008693D01*
X11974653Y-12008693D02*
X11965129Y-12046788D01*
X11965129Y-12046788D02*
X11955605Y-12065836D01*
X11955605Y-12065836D02*
X11946082Y-12075360D01*
X11946082Y-12075360D02*
X11927034Y-12084884D01*
X11927034Y-12084884D02*
X11907986Y-12084884D01*
X11907986Y-12084884D02*
X11888939Y-12075360D01*
X11888939Y-12075360D02*
X11879415Y-12065836D01*
X11879415Y-12065836D02*
X11869891Y-12046788D01*
X11869891Y-12046788D02*
X11860367Y-12008693D01*
X11860367Y-12008693D02*
X11860367Y-11961074D01*
X11860367Y-11961074D02*
X11869891Y-11922979D01*
X11869891Y-11922979D02*
X11879415Y-11903931D01*
X11879415Y-11903931D02*
X11888939Y-11894408D01*
X11888939Y-11894408D02*
X11907986Y-11884884D01*
X12098462Y-11884884D02*
X12117510Y-11884884D01*
X12117510Y-11884884D02*
X12136558Y-11894408D01*
X12136558Y-11894408D02*
X12146082Y-11903931D01*
X12146082Y-11903931D02*
X12155605Y-11922979D01*
X12155605Y-11922979D02*
X12165129Y-11961074D01*
X12165129Y-11961074D02*
X12165129Y-12008693D01*
X12165129Y-12008693D02*
X12155605Y-12046788D01*
X12155605Y-12046788D02*
X12146082Y-12065836D01*
X12146082Y-12065836D02*
X12136558Y-12075360D01*
X12136558Y-12075360D02*
X12117510Y-12084884D01*
X12117510Y-12084884D02*
X12098462Y-12084884D01*
X12098462Y-12084884D02*
X12079415Y-12075360D01*
X12079415Y-12075360D02*
X12069891Y-12065836D01*
X12069891Y-12065836D02*
X12060367Y-12046788D01*
X12060367Y-12046788D02*
X12050843Y-12008693D01*
X12050843Y-12008693D02*
X12050843Y-11961074D01*
X12050843Y-11961074D02*
X12060367Y-11922979D01*
X12060367Y-11922979D02*
X12069891Y-11903931D01*
X12069891Y-11903931D02*
X12079415Y-11894408D01*
X12079415Y-11894408D02*
X12098462Y-11884884D01*
X12288939Y-11884884D02*
X12307986Y-11884884D01*
X12307986Y-11884884D02*
X12327034Y-11894408D01*
X12327034Y-11894408D02*
X12336558Y-11903931D01*
X12336558Y-11903931D02*
X12346082Y-11922979D01*
X12346082Y-11922979D02*
X12355605Y-11961074D01*
X12355605Y-11961074D02*
X12355605Y-12008693D01*
X12355605Y-12008693D02*
X12346082Y-12046788D01*
X12346082Y-12046788D02*
X12336558Y-12065836D01*
X12336558Y-12065836D02*
X12327034Y-12075360D01*
X12327034Y-12075360D02*
X12307986Y-12084884D01*
X12307986Y-12084884D02*
X12288939Y-12084884D01*
X12288939Y-12084884D02*
X12269891Y-12075360D01*
X12269891Y-12075360D02*
X12260367Y-12065836D01*
X12260367Y-12065836D02*
X12250843Y-12046788D01*
X12250843Y-12046788D02*
X12241320Y-12008693D01*
X12241320Y-12008693D02*
X12241320Y-11961074D01*
X12241320Y-11961074D02*
X12250843Y-11922979D01*
X12250843Y-11922979D02*
X12260367Y-11903931D01*
X12260367Y-11903931D02*
X12269891Y-11894408D01*
X12269891Y-11894408D02*
X12288939Y-11884884D01*
X12441320Y-12084884D02*
X12441320Y-11951550D01*
X12441320Y-11970598D02*
X12450843Y-11961074D01*
X12450843Y-11961074D02*
X12469891Y-11951550D01*
X12469891Y-11951550D02*
X12498463Y-11951550D01*
X12498463Y-11951550D02*
X12517510Y-11961074D01*
X12517510Y-11961074D02*
X12527034Y-11980122D01*
X12527034Y-11980122D02*
X12527034Y-12084884D01*
X12527034Y-11980122D02*
X12536558Y-11961074D01*
X12536558Y-11961074D02*
X12555605Y-11951550D01*
X12555605Y-11951550D02*
X12584177Y-11951550D01*
X12584177Y-11951550D02*
X12603224Y-11961074D01*
X12603224Y-11961074D02*
X12612748Y-11980122D01*
X12612748Y-11980122D02*
X12612748Y-12084884D01*
X12707986Y-12084884D02*
X12707986Y-11951550D01*
X12707986Y-11970598D02*
X12717510Y-11961074D01*
X12717510Y-11961074D02*
X12736558Y-11951550D01*
X12736558Y-11951550D02*
X12765129Y-11951550D01*
X12765129Y-11951550D02*
X12784177Y-11961074D01*
X12784177Y-11961074D02*
X12793701Y-11980122D01*
X12793701Y-11980122D02*
X12793701Y-12084884D01*
X12793701Y-11980122D02*
X12803224Y-11961074D01*
X12803224Y-11961074D02*
X12822272Y-11951550D01*
X12822272Y-11951550D02*
X12850843Y-11951550D01*
X12850843Y-11951550D02*
X12869891Y-11961074D01*
X12869891Y-11961074D02*
X12879415Y-11980122D01*
X12879415Y-11980122D02*
X12879415Y-12084884D01*
X13269891Y-11875360D02*
X13098463Y-12132503D01*
X13527034Y-11884884D02*
X13546082Y-11884884D01*
X13546082Y-11884884D02*
X13565129Y-11894408D01*
X13565129Y-11894408D02*
X13574653Y-11903931D01*
X13574653Y-11903931D02*
X13584177Y-11922979D01*
X13584177Y-11922979D02*
X13593701Y-11961074D01*
X13593701Y-11961074D02*
X13593701Y-12008693D01*
X13593701Y-12008693D02*
X13584177Y-12046788D01*
X13584177Y-12046788D02*
X13574653Y-12065836D01*
X13574653Y-12065836D02*
X13565129Y-12075360D01*
X13565129Y-12075360D02*
X13546082Y-12084884D01*
X13546082Y-12084884D02*
X13527034Y-12084884D01*
X13527034Y-12084884D02*
X13507986Y-12075360D01*
X13507986Y-12075360D02*
X13498463Y-12065836D01*
X13498463Y-12065836D02*
X13488939Y-12046788D01*
X13488939Y-12046788D02*
X13479415Y-12008693D01*
X13479415Y-12008693D02*
X13479415Y-11961074D01*
X13479415Y-11961074D02*
X13488939Y-11922979D01*
X13488939Y-11922979D02*
X13498463Y-11903931D01*
X13498463Y-11903931D02*
X13507986Y-11894408D01*
X13507986Y-11894408D02*
X13527034Y-11884884D01*
X13679415Y-12065836D02*
X13688939Y-12075360D01*
X13688939Y-12075360D02*
X13679415Y-12084884D01*
X13679415Y-12084884D02*
X13669891Y-12075360D01*
X13669891Y-12075360D02*
X13679415Y-12065836D01*
X13679415Y-12065836D02*
X13679415Y-12084884D01*
X13812748Y-11884884D02*
X13831796Y-11884884D01*
X13831796Y-11884884D02*
X13850844Y-11894408D01*
X13850844Y-11894408D02*
X13860367Y-11903931D01*
X13860367Y-11903931D02*
X13869891Y-11922979D01*
X13869891Y-11922979D02*
X13879415Y-11961074D01*
X13879415Y-11961074D02*
X13879415Y-12008693D01*
X13879415Y-12008693D02*
X13869891Y-12046788D01*
X13869891Y-12046788D02*
X13860367Y-12065836D01*
X13860367Y-12065836D02*
X13850844Y-12075360D01*
X13850844Y-12075360D02*
X13831796Y-12084884D01*
X13831796Y-12084884D02*
X13812748Y-12084884D01*
X13812748Y-12084884D02*
X13793701Y-12075360D01*
X13793701Y-12075360D02*
X13784177Y-12065836D01*
X13784177Y-12065836D02*
X13774653Y-12046788D01*
X13774653Y-12046788D02*
X13765129Y-12008693D01*
X13765129Y-12008693D02*
X13765129Y-11961074D01*
X13765129Y-11961074D02*
X13774653Y-11922979D01*
X13774653Y-11922979D02*
X13784177Y-11903931D01*
X13784177Y-11903931D02*
X13793701Y-11894408D01*
X13793701Y-11894408D02*
X13812748Y-11884884D01*
X13946082Y-11884884D02*
X14069891Y-11884884D01*
X14069891Y-11884884D02*
X14003225Y-11961074D01*
X14003225Y-11961074D02*
X14031796Y-11961074D01*
X14031796Y-11961074D02*
X14050844Y-11970598D01*
X14050844Y-11970598D02*
X14060367Y-11980122D01*
X14060367Y-11980122D02*
X14069891Y-11999169D01*
X14069891Y-11999169D02*
X14069891Y-12046788D01*
X14069891Y-12046788D02*
X14060367Y-12065836D01*
X14060367Y-12065836D02*
X14050844Y-12075360D01*
X14050844Y-12075360D02*
X14031796Y-12084884D01*
X14031796Y-12084884D02*
X13974653Y-12084884D01*
X13974653Y-12084884D02*
X13955606Y-12075360D01*
X13955606Y-12075360D02*
X13946082Y-12065836D01*
X14165129Y-12084884D02*
X14203225Y-12084884D01*
X14203225Y-12084884D02*
X14222272Y-12075360D01*
X14222272Y-12075360D02*
X14231796Y-12065836D01*
X14231796Y-12065836D02*
X14250844Y-12037265D01*
X14250844Y-12037265D02*
X14260367Y-11999169D01*
X14260367Y-11999169D02*
X14260367Y-11922979D01*
X14260367Y-11922979D02*
X14250844Y-11903931D01*
X14250844Y-11903931D02*
X14241320Y-11894408D01*
X14241320Y-11894408D02*
X14222272Y-11884884D01*
X14222272Y-11884884D02*
X14184177Y-11884884D01*
X14184177Y-11884884D02*
X14165129Y-11894408D01*
X14165129Y-11894408D02*
X14155606Y-11903931D01*
X14155606Y-11903931D02*
X14146082Y-11922979D01*
X14146082Y-11922979D02*
X14146082Y-11970598D01*
X14146082Y-11970598D02*
X14155606Y-11989646D01*
X14155606Y-11989646D02*
X14165129Y-11999169D01*
X14165129Y-11999169D02*
X14184177Y-12008693D01*
X14184177Y-12008693D02*
X14222272Y-12008693D01*
X14222272Y-12008693D02*
X14241320Y-11999169D01*
X14241320Y-11999169D02*
X14250844Y-11989646D01*
X14250844Y-11989646D02*
X14260367Y-11970598D01*
X14431796Y-11951550D02*
X14431796Y-12084884D01*
X14384177Y-11875360D02*
X14336558Y-12018217D01*
X14336558Y-12018217D02*
X14460367Y-12018217D01*
X14527034Y-11884884D02*
X14527034Y-11922979D01*
X14603225Y-11884884D02*
X14603225Y-11922979D01*
X14898463Y-12161074D02*
X14888939Y-12151550D01*
X14888939Y-12151550D02*
X14869891Y-12122979D01*
X14869891Y-12122979D02*
X14860368Y-12103931D01*
X14860368Y-12103931D02*
X14850844Y-12075360D01*
X14850844Y-12075360D02*
X14841320Y-12027741D01*
X14841320Y-12027741D02*
X14841320Y-11989646D01*
X14841320Y-11989646D02*
X14850844Y-11942027D01*
X14850844Y-11942027D02*
X14860368Y-11913455D01*
X14860368Y-11913455D02*
X14869891Y-11894408D01*
X14869891Y-11894408D02*
X14888939Y-11865836D01*
X14888939Y-11865836D02*
X14898463Y-11856312D01*
X14984177Y-12084884D02*
X15022272Y-12084884D01*
X15022272Y-12084884D02*
X15041320Y-12075360D01*
X15041320Y-12075360D02*
X15050844Y-12065836D01*
X15050844Y-12065836D02*
X15069891Y-12037265D01*
X15069891Y-12037265D02*
X15079415Y-11999169D01*
X15079415Y-11999169D02*
X15079415Y-11922979D01*
X15079415Y-11922979D02*
X15069891Y-11903931D01*
X15069891Y-11903931D02*
X15060368Y-11894408D01*
X15060368Y-11894408D02*
X15041320Y-11884884D01*
X15041320Y-11884884D02*
X15003225Y-11884884D01*
X15003225Y-11884884D02*
X14984177Y-11894408D01*
X14984177Y-11894408D02*
X14974653Y-11903931D01*
X14974653Y-11903931D02*
X14965129Y-11922979D01*
X14965129Y-11922979D02*
X14965129Y-11970598D01*
X14965129Y-11970598D02*
X14974653Y-11989646D01*
X14974653Y-11989646D02*
X14984177Y-11999169D01*
X14984177Y-11999169D02*
X15003225Y-12008693D01*
X15003225Y-12008693D02*
X15041320Y-12008693D01*
X15041320Y-12008693D02*
X15060368Y-11999169D01*
X15060368Y-11999169D02*
X15069891Y-11989646D01*
X15069891Y-11989646D02*
X15079415Y-11970598D01*
X15317510Y-12084884D02*
X15317510Y-11884884D01*
X15403225Y-12084884D02*
X15403225Y-11980122D01*
X15403225Y-11980122D02*
X15393701Y-11961074D01*
X15393701Y-11961074D02*
X15374653Y-11951550D01*
X15374653Y-11951550D02*
X15346082Y-11951550D01*
X15346082Y-11951550D02*
X15327034Y-11961074D01*
X15327034Y-11961074D02*
X15317510Y-11970598D01*
X15527034Y-12084884D02*
X15507987Y-12075360D01*
X15507987Y-12075360D02*
X15498463Y-12065836D01*
X15498463Y-12065836D02*
X15488939Y-12046788D01*
X15488939Y-12046788D02*
X15488939Y-11989646D01*
X15488939Y-11989646D02*
X15498463Y-11970598D01*
X15498463Y-11970598D02*
X15507987Y-11961074D01*
X15507987Y-11961074D02*
X15527034Y-11951550D01*
X15527034Y-11951550D02*
X15555606Y-11951550D01*
X15555606Y-11951550D02*
X15574653Y-11961074D01*
X15574653Y-11961074D02*
X15584177Y-11970598D01*
X15584177Y-11970598D02*
X15593701Y-11989646D01*
X15593701Y-11989646D02*
X15593701Y-12046788D01*
X15593701Y-12046788D02*
X15584177Y-12065836D01*
X15584177Y-12065836D02*
X15574653Y-12075360D01*
X15574653Y-12075360D02*
X15555606Y-12084884D01*
X15555606Y-12084884D02*
X15527034Y-12084884D01*
X15707987Y-12084884D02*
X15688939Y-12075360D01*
X15688939Y-12075360D02*
X15679415Y-12056312D01*
X15679415Y-12056312D02*
X15679415Y-11884884D01*
X15860368Y-12075360D02*
X15841320Y-12084884D01*
X15841320Y-12084884D02*
X15803225Y-12084884D01*
X15803225Y-12084884D02*
X15784177Y-12075360D01*
X15784177Y-12075360D02*
X15774653Y-12056312D01*
X15774653Y-12056312D02*
X15774653Y-11980122D01*
X15774653Y-11980122D02*
X15784177Y-11961074D01*
X15784177Y-11961074D02*
X15803225Y-11951550D01*
X15803225Y-11951550D02*
X15841320Y-11951550D01*
X15841320Y-11951550D02*
X15860368Y-11961074D01*
X15860368Y-11961074D02*
X15869891Y-11980122D01*
X15869891Y-11980122D02*
X15869891Y-11999169D01*
X15869891Y-11999169D02*
X15774653Y-12018217D01*
X15946082Y-12075360D02*
X15965130Y-12084884D01*
X15965130Y-12084884D02*
X16003225Y-12084884D01*
X16003225Y-12084884D02*
X16022272Y-12075360D01*
X16022272Y-12075360D02*
X16031796Y-12056312D01*
X16031796Y-12056312D02*
X16031796Y-12046788D01*
X16031796Y-12046788D02*
X16022272Y-12027741D01*
X16022272Y-12027741D02*
X16003225Y-12018217D01*
X16003225Y-12018217D02*
X15974653Y-12018217D01*
X15974653Y-12018217D02*
X15955606Y-12008693D01*
X15955606Y-12008693D02*
X15946082Y-11989646D01*
X15946082Y-11989646D02*
X15946082Y-11980122D01*
X15946082Y-11980122D02*
X15955606Y-11961074D01*
X15955606Y-11961074D02*
X15974653Y-11951550D01*
X15974653Y-11951550D02*
X16003225Y-11951550D01*
X16003225Y-11951550D02*
X16022272Y-11961074D01*
X16098463Y-12161074D02*
X16107987Y-12151550D01*
X16107987Y-12151550D02*
X16127034Y-12122979D01*
X16127034Y-12122979D02*
X16136558Y-12103931D01*
X16136558Y-12103931D02*
X16146082Y-12075360D01*
X16146082Y-12075360D02*
X16155606Y-12027741D01*
X16155606Y-12027741D02*
X16155606Y-11989646D01*
X16155606Y-11989646D02*
X16146082Y-11942027D01*
X16146082Y-11942027D02*
X16136558Y-11913455D01*
X16136558Y-11913455D02*
X16127034Y-11894408D01*
X16127034Y-11894408D02*
X16107987Y-11865836D01*
X16107987Y-11865836D02*
X16098463Y-11856312D01*
X11294111Y-12328111D02*
X11294111Y-12186689D01*
X11152689Y-12186689D01*
X11152689Y-12328111D01*
X11294111Y-12328111D01*
X11574653Y-12167931D02*
X11584177Y-12158408D01*
X11584177Y-12158408D02*
X11603224Y-12148884D01*
X11603224Y-12148884D02*
X11650843Y-12148884D01*
X11650843Y-12148884D02*
X11669891Y-12158408D01*
X11669891Y-12158408D02*
X11679415Y-12167931D01*
X11679415Y-12167931D02*
X11688939Y-12186979D01*
X11688939Y-12186979D02*
X11688939Y-12206027D01*
X11688939Y-12206027D02*
X11679415Y-12234598D01*
X11679415Y-12234598D02*
X11565129Y-12348884D01*
X11565129Y-12348884D02*
X11688939Y-12348884D01*
X11774653Y-12329836D02*
X11784177Y-12339360D01*
X11784177Y-12339360D02*
X11774653Y-12348884D01*
X11774653Y-12348884D02*
X11765129Y-12339360D01*
X11765129Y-12339360D02*
X11774653Y-12329836D01*
X11774653Y-12329836D02*
X11774653Y-12348884D01*
X11898462Y-12234598D02*
X11879415Y-12225074D01*
X11879415Y-12225074D02*
X11869891Y-12215550D01*
X11869891Y-12215550D02*
X11860367Y-12196503D01*
X11860367Y-12196503D02*
X11860367Y-12186979D01*
X11860367Y-12186979D02*
X11869891Y-12167931D01*
X11869891Y-12167931D02*
X11879415Y-12158408D01*
X11879415Y-12158408D02*
X11898462Y-12148884D01*
X11898462Y-12148884D02*
X11936558Y-12148884D01*
X11936558Y-12148884D02*
X11955605Y-12158408D01*
X11955605Y-12158408D02*
X11965129Y-12167931D01*
X11965129Y-12167931D02*
X11974653Y-12186979D01*
X11974653Y-12186979D02*
X11974653Y-12196503D01*
X11974653Y-12196503D02*
X11965129Y-12215550D01*
X11965129Y-12215550D02*
X11955605Y-12225074D01*
X11955605Y-12225074D02*
X11936558Y-12234598D01*
X11936558Y-12234598D02*
X11898462Y-12234598D01*
X11898462Y-12234598D02*
X11879415Y-12244122D01*
X11879415Y-12244122D02*
X11869891Y-12253646D01*
X11869891Y-12253646D02*
X11860367Y-12272693D01*
X11860367Y-12272693D02*
X11860367Y-12310788D01*
X11860367Y-12310788D02*
X11869891Y-12329836D01*
X11869891Y-12329836D02*
X11879415Y-12339360D01*
X11879415Y-12339360D02*
X11898462Y-12348884D01*
X11898462Y-12348884D02*
X11936558Y-12348884D01*
X11936558Y-12348884D02*
X11955605Y-12339360D01*
X11955605Y-12339360D02*
X11965129Y-12329836D01*
X11965129Y-12329836D02*
X11974653Y-12310788D01*
X11974653Y-12310788D02*
X11974653Y-12272693D01*
X11974653Y-12272693D02*
X11965129Y-12253646D01*
X11965129Y-12253646D02*
X11955605Y-12244122D01*
X11955605Y-12244122D02*
X11936558Y-12234598D01*
X12146082Y-12215550D02*
X12146082Y-12348884D01*
X12098462Y-12139360D02*
X12050843Y-12282217D01*
X12050843Y-12282217D02*
X12174653Y-12282217D01*
X12288939Y-12148884D02*
X12307986Y-12148884D01*
X12307986Y-12148884D02*
X12327034Y-12158408D01*
X12327034Y-12158408D02*
X12336558Y-12167931D01*
X12336558Y-12167931D02*
X12346082Y-12186979D01*
X12346082Y-12186979D02*
X12355605Y-12225074D01*
X12355605Y-12225074D02*
X12355605Y-12272693D01*
X12355605Y-12272693D02*
X12346082Y-12310788D01*
X12346082Y-12310788D02*
X12336558Y-12329836D01*
X12336558Y-12329836D02*
X12327034Y-12339360D01*
X12327034Y-12339360D02*
X12307986Y-12348884D01*
X12307986Y-12348884D02*
X12288939Y-12348884D01*
X12288939Y-12348884D02*
X12269891Y-12339360D01*
X12269891Y-12339360D02*
X12260367Y-12329836D01*
X12260367Y-12329836D02*
X12250843Y-12310788D01*
X12250843Y-12310788D02*
X12241320Y-12272693D01*
X12241320Y-12272693D02*
X12241320Y-12225074D01*
X12241320Y-12225074D02*
X12250843Y-12186979D01*
X12250843Y-12186979D02*
X12260367Y-12167931D01*
X12260367Y-12167931D02*
X12269891Y-12158408D01*
X12269891Y-12158408D02*
X12288939Y-12148884D01*
X12441320Y-12348884D02*
X12441320Y-12215550D01*
X12441320Y-12234598D02*
X12450843Y-12225074D01*
X12450843Y-12225074D02*
X12469891Y-12215550D01*
X12469891Y-12215550D02*
X12498463Y-12215550D01*
X12498463Y-12215550D02*
X12517510Y-12225074D01*
X12517510Y-12225074D02*
X12527034Y-12244122D01*
X12527034Y-12244122D02*
X12527034Y-12348884D01*
X12527034Y-12244122D02*
X12536558Y-12225074D01*
X12536558Y-12225074D02*
X12555605Y-12215550D01*
X12555605Y-12215550D02*
X12584177Y-12215550D01*
X12584177Y-12215550D02*
X12603224Y-12225074D01*
X12603224Y-12225074D02*
X12612748Y-12244122D01*
X12612748Y-12244122D02*
X12612748Y-12348884D01*
X12707986Y-12348884D02*
X12707986Y-12215550D01*
X12707986Y-12234598D02*
X12717510Y-12225074D01*
X12717510Y-12225074D02*
X12736558Y-12215550D01*
X12736558Y-12215550D02*
X12765129Y-12215550D01*
X12765129Y-12215550D02*
X12784177Y-12225074D01*
X12784177Y-12225074D02*
X12793701Y-12244122D01*
X12793701Y-12244122D02*
X12793701Y-12348884D01*
X12793701Y-12244122D02*
X12803224Y-12225074D01*
X12803224Y-12225074D02*
X12822272Y-12215550D01*
X12822272Y-12215550D02*
X12850843Y-12215550D01*
X12850843Y-12215550D02*
X12869891Y-12225074D01*
X12869891Y-12225074D02*
X12879415Y-12244122D01*
X12879415Y-12244122D02*
X12879415Y-12348884D01*
X13269891Y-12139360D02*
X13098463Y-12396503D01*
X13527034Y-12148884D02*
X13546082Y-12148884D01*
X13546082Y-12148884D02*
X13565129Y-12158408D01*
X13565129Y-12158408D02*
X13574653Y-12167931D01*
X13574653Y-12167931D02*
X13584177Y-12186979D01*
X13584177Y-12186979D02*
X13593701Y-12225074D01*
X13593701Y-12225074D02*
X13593701Y-12272693D01*
X13593701Y-12272693D02*
X13584177Y-12310788D01*
X13584177Y-12310788D02*
X13574653Y-12329836D01*
X13574653Y-12329836D02*
X13565129Y-12339360D01*
X13565129Y-12339360D02*
X13546082Y-12348884D01*
X13546082Y-12348884D02*
X13527034Y-12348884D01*
X13527034Y-12348884D02*
X13507986Y-12339360D01*
X13507986Y-12339360D02*
X13498463Y-12329836D01*
X13498463Y-12329836D02*
X13488939Y-12310788D01*
X13488939Y-12310788D02*
X13479415Y-12272693D01*
X13479415Y-12272693D02*
X13479415Y-12225074D01*
X13479415Y-12225074D02*
X13488939Y-12186979D01*
X13488939Y-12186979D02*
X13498463Y-12167931D01*
X13498463Y-12167931D02*
X13507986Y-12158408D01*
X13507986Y-12158408D02*
X13527034Y-12148884D01*
X13679415Y-12329836D02*
X13688939Y-12339360D01*
X13688939Y-12339360D02*
X13679415Y-12348884D01*
X13679415Y-12348884D02*
X13669891Y-12339360D01*
X13669891Y-12339360D02*
X13679415Y-12329836D01*
X13679415Y-12329836D02*
X13679415Y-12348884D01*
X13879415Y-12348884D02*
X13765129Y-12348884D01*
X13822272Y-12348884D02*
X13822272Y-12148884D01*
X13822272Y-12148884D02*
X13803225Y-12177455D01*
X13803225Y-12177455D02*
X13784177Y-12196503D01*
X13784177Y-12196503D02*
X13765129Y-12206027D01*
X14069891Y-12348884D02*
X13955606Y-12348884D01*
X14012748Y-12348884D02*
X14012748Y-12148884D01*
X14012748Y-12148884D02*
X13993701Y-12177455D01*
X13993701Y-12177455D02*
X13974653Y-12196503D01*
X13974653Y-12196503D02*
X13955606Y-12206027D01*
X14260367Y-12348884D02*
X14146082Y-12348884D01*
X14203225Y-12348884D02*
X14203225Y-12148884D01*
X14203225Y-12148884D02*
X14184177Y-12177455D01*
X14184177Y-12177455D02*
X14165129Y-12196503D01*
X14165129Y-12196503D02*
X14146082Y-12206027D01*
X14374653Y-12234598D02*
X14355606Y-12225074D01*
X14355606Y-12225074D02*
X14346082Y-12215550D01*
X14346082Y-12215550D02*
X14336558Y-12196503D01*
X14336558Y-12196503D02*
X14336558Y-12186979D01*
X14336558Y-12186979D02*
X14346082Y-12167931D01*
X14346082Y-12167931D02*
X14355606Y-12158408D01*
X14355606Y-12158408D02*
X14374653Y-12148884D01*
X14374653Y-12148884D02*
X14412748Y-12148884D01*
X14412748Y-12148884D02*
X14431796Y-12158408D01*
X14431796Y-12158408D02*
X14441320Y-12167931D01*
X14441320Y-12167931D02*
X14450844Y-12186979D01*
X14450844Y-12186979D02*
X14450844Y-12196503D01*
X14450844Y-12196503D02*
X14441320Y-12215550D01*
X14441320Y-12215550D02*
X14431796Y-12225074D01*
X14431796Y-12225074D02*
X14412748Y-12234598D01*
X14412748Y-12234598D02*
X14374653Y-12234598D01*
X14374653Y-12234598D02*
X14355606Y-12244122D01*
X14355606Y-12244122D02*
X14346082Y-12253646D01*
X14346082Y-12253646D02*
X14336558Y-12272693D01*
X14336558Y-12272693D02*
X14336558Y-12310788D01*
X14336558Y-12310788D02*
X14346082Y-12329836D01*
X14346082Y-12329836D02*
X14355606Y-12339360D01*
X14355606Y-12339360D02*
X14374653Y-12348884D01*
X14374653Y-12348884D02*
X14412748Y-12348884D01*
X14412748Y-12348884D02*
X14431796Y-12339360D01*
X14431796Y-12339360D02*
X14441320Y-12329836D01*
X14441320Y-12329836D02*
X14450844Y-12310788D01*
X14450844Y-12310788D02*
X14450844Y-12272693D01*
X14450844Y-12272693D02*
X14441320Y-12253646D01*
X14441320Y-12253646D02*
X14431796Y-12244122D01*
X14431796Y-12244122D02*
X14412748Y-12234598D01*
X14527034Y-12148884D02*
X14527034Y-12186979D01*
X14603225Y-12148884D02*
X14603225Y-12186979D01*
X14898463Y-12425074D02*
X14888939Y-12415550D01*
X14888939Y-12415550D02*
X14869891Y-12386979D01*
X14869891Y-12386979D02*
X14860368Y-12367931D01*
X14860368Y-12367931D02*
X14850844Y-12339360D01*
X14850844Y-12339360D02*
X14841320Y-12291741D01*
X14841320Y-12291741D02*
X14841320Y-12253646D01*
X14841320Y-12253646D02*
X14850844Y-12206027D01*
X14850844Y-12206027D02*
X14860368Y-12177455D01*
X14860368Y-12177455D02*
X14869891Y-12158408D01*
X14869891Y-12158408D02*
X14888939Y-12129836D01*
X14888939Y-12129836D02*
X14898463Y-12120312D01*
X14965129Y-12167931D02*
X14974653Y-12158408D01*
X14974653Y-12158408D02*
X14993701Y-12148884D01*
X14993701Y-12148884D02*
X15041320Y-12148884D01*
X15041320Y-12148884D02*
X15060368Y-12158408D01*
X15060368Y-12158408D02*
X15069891Y-12167931D01*
X15069891Y-12167931D02*
X15079415Y-12186979D01*
X15079415Y-12186979D02*
X15079415Y-12206027D01*
X15079415Y-12206027D02*
X15069891Y-12234598D01*
X15069891Y-12234598D02*
X14955606Y-12348884D01*
X14955606Y-12348884D02*
X15079415Y-12348884D01*
X15317510Y-12348884D02*
X15317510Y-12148884D01*
X15403225Y-12348884D02*
X15403225Y-12244122D01*
X15403225Y-12244122D02*
X15393701Y-12225074D01*
X15393701Y-12225074D02*
X15374653Y-12215550D01*
X15374653Y-12215550D02*
X15346082Y-12215550D01*
X15346082Y-12215550D02*
X15327034Y-12225074D01*
X15327034Y-12225074D02*
X15317510Y-12234598D01*
X15527034Y-12348884D02*
X15507987Y-12339360D01*
X15507987Y-12339360D02*
X15498463Y-12329836D01*
X15498463Y-12329836D02*
X15488939Y-12310788D01*
X15488939Y-12310788D02*
X15488939Y-12253646D01*
X15488939Y-12253646D02*
X15498463Y-12234598D01*
X15498463Y-12234598D02*
X15507987Y-12225074D01*
X15507987Y-12225074D02*
X15527034Y-12215550D01*
X15527034Y-12215550D02*
X15555606Y-12215550D01*
X15555606Y-12215550D02*
X15574653Y-12225074D01*
X15574653Y-12225074D02*
X15584177Y-12234598D01*
X15584177Y-12234598D02*
X15593701Y-12253646D01*
X15593701Y-12253646D02*
X15593701Y-12310788D01*
X15593701Y-12310788D02*
X15584177Y-12329836D01*
X15584177Y-12329836D02*
X15574653Y-12339360D01*
X15574653Y-12339360D02*
X15555606Y-12348884D01*
X15555606Y-12348884D02*
X15527034Y-12348884D01*
X15707987Y-12348884D02*
X15688939Y-12339360D01*
X15688939Y-12339360D02*
X15679415Y-12320312D01*
X15679415Y-12320312D02*
X15679415Y-12148884D01*
X15860368Y-12339360D02*
X15841320Y-12348884D01*
X15841320Y-12348884D02*
X15803225Y-12348884D01*
X15803225Y-12348884D02*
X15784177Y-12339360D01*
X15784177Y-12339360D02*
X15774653Y-12320312D01*
X15774653Y-12320312D02*
X15774653Y-12244122D01*
X15774653Y-12244122D02*
X15784177Y-12225074D01*
X15784177Y-12225074D02*
X15803225Y-12215550D01*
X15803225Y-12215550D02*
X15841320Y-12215550D01*
X15841320Y-12215550D02*
X15860368Y-12225074D01*
X15860368Y-12225074D02*
X15869891Y-12244122D01*
X15869891Y-12244122D02*
X15869891Y-12263169D01*
X15869891Y-12263169D02*
X15774653Y-12282217D01*
X15946082Y-12339360D02*
X15965130Y-12348884D01*
X15965130Y-12348884D02*
X16003225Y-12348884D01*
X16003225Y-12348884D02*
X16022272Y-12339360D01*
X16022272Y-12339360D02*
X16031796Y-12320312D01*
X16031796Y-12320312D02*
X16031796Y-12310788D01*
X16031796Y-12310788D02*
X16022272Y-12291741D01*
X16022272Y-12291741D02*
X16003225Y-12282217D01*
X16003225Y-12282217D02*
X15974653Y-12282217D01*
X15974653Y-12282217D02*
X15955606Y-12272693D01*
X15955606Y-12272693D02*
X15946082Y-12253646D01*
X15946082Y-12253646D02*
X15946082Y-12244122D01*
X15946082Y-12244122D02*
X15955606Y-12225074D01*
X15955606Y-12225074D02*
X15974653Y-12215550D01*
X15974653Y-12215550D02*
X16003225Y-12215550D01*
X16003225Y-12215550D02*
X16022272Y-12225074D01*
X16098463Y-12425074D02*
X16107987Y-12415550D01*
X16107987Y-12415550D02*
X16127034Y-12386979D01*
X16127034Y-12386979D02*
X16136558Y-12367931D01*
X16136558Y-12367931D02*
X16146082Y-12339360D01*
X16146082Y-12339360D02*
X16155606Y-12291741D01*
X16155606Y-12291741D02*
X16155606Y-12253646D01*
X16155606Y-12253646D02*
X16146082Y-12206027D01*
X16146082Y-12206027D02*
X16136558Y-12177455D01*
X16136558Y-12177455D02*
X16127034Y-12158408D01*
X16127034Y-12158408D02*
X16107987Y-12129836D01*
X16107987Y-12129836D02*
X16098463Y-12120312D01*
M02*
