%TF.GenerationSoftware,KiCad,Pcbnew,8.0.5*%
%TF.CreationDate,2024-10-02T19:19:46-04:00*%
%TF.ProjectId,pcb_chip,7063625f-6368-4697-902e-6b696361645f,rev?*%
%TF.SameCoordinates,Original*%
%TF.FileFunction,Drillmap*%
%TF.FilePolarity,Positive*%
%FSLAX45Y45*%
G04 Gerber Fmt 4.5, Leading zero omitted, Abs format (unit mm)*
G04 Created by KiCad (PCBNEW 8.0.5) date 2024-10-02 19:19:46*
%MOMM*%
%LPD*%
G01*
G04 APERTURE LIST*
%ADD10C,0.100000*%
%ADD11C,0.200000*%
G04 APERTURE END LIST*
D10*
X14325600Y-8255000D02*
X14325600Y-10541000D01*
X14046200Y-10820400D01*
X11607800Y-10820400D01*
X11328400Y-10541000D01*
X11328400Y-8255000D01*
X11607800Y-7975600D01*
X14046200Y-7975600D01*
X14325600Y-8255000D01*
D11*
X11584177Y-11136884D02*
X11584177Y-10936884D01*
X11584177Y-10936884D02*
X11631796Y-10936884D01*
X11631796Y-10936884D02*
X11660367Y-10946408D01*
X11660367Y-10946408D02*
X11679415Y-10965455D01*
X11679415Y-10965455D02*
X11688939Y-10984503D01*
X11688939Y-10984503D02*
X11698462Y-11022598D01*
X11698462Y-11022598D02*
X11698462Y-11051170D01*
X11698462Y-11051170D02*
X11688939Y-11089265D01*
X11688939Y-11089265D02*
X11679415Y-11108312D01*
X11679415Y-11108312D02*
X11660367Y-11127360D01*
X11660367Y-11127360D02*
X11631796Y-11136884D01*
X11631796Y-11136884D02*
X11584177Y-11136884D01*
X11784177Y-11136884D02*
X11784177Y-11003550D01*
X11784177Y-11041646D02*
X11793701Y-11022598D01*
X11793701Y-11022598D02*
X11803224Y-11013074D01*
X11803224Y-11013074D02*
X11822272Y-11003550D01*
X11822272Y-11003550D02*
X11841320Y-11003550D01*
X11907986Y-11136884D02*
X11907986Y-11003550D01*
X11907986Y-10936884D02*
X11898462Y-10946408D01*
X11898462Y-10946408D02*
X11907986Y-10955931D01*
X11907986Y-10955931D02*
X11917510Y-10946408D01*
X11917510Y-10946408D02*
X11907986Y-10936884D01*
X11907986Y-10936884D02*
X11907986Y-10955931D01*
X12031796Y-11136884D02*
X12012748Y-11127360D01*
X12012748Y-11127360D02*
X12003224Y-11108312D01*
X12003224Y-11108312D02*
X12003224Y-10936884D01*
X12136558Y-11136884D02*
X12117510Y-11127360D01*
X12117510Y-11127360D02*
X12107986Y-11108312D01*
X12107986Y-11108312D02*
X12107986Y-10936884D01*
X12365129Y-11136884D02*
X12365129Y-10936884D01*
X12365129Y-10936884D02*
X12431796Y-11079741D01*
X12431796Y-11079741D02*
X12498462Y-10936884D01*
X12498462Y-10936884D02*
X12498462Y-11136884D01*
X12679415Y-11136884D02*
X12679415Y-11032122D01*
X12679415Y-11032122D02*
X12669891Y-11013074D01*
X12669891Y-11013074D02*
X12650843Y-11003550D01*
X12650843Y-11003550D02*
X12612748Y-11003550D01*
X12612748Y-11003550D02*
X12593701Y-11013074D01*
X12679415Y-11127360D02*
X12660367Y-11136884D01*
X12660367Y-11136884D02*
X12612748Y-11136884D01*
X12612748Y-11136884D02*
X12593701Y-11127360D01*
X12593701Y-11127360D02*
X12584177Y-11108312D01*
X12584177Y-11108312D02*
X12584177Y-11089265D01*
X12584177Y-11089265D02*
X12593701Y-11070217D01*
X12593701Y-11070217D02*
X12612748Y-11060693D01*
X12612748Y-11060693D02*
X12660367Y-11060693D01*
X12660367Y-11060693D02*
X12679415Y-11051170D01*
X12774653Y-11003550D02*
X12774653Y-11203550D01*
X12774653Y-11013074D02*
X12793701Y-11003550D01*
X12793701Y-11003550D02*
X12831796Y-11003550D01*
X12831796Y-11003550D02*
X12850843Y-11013074D01*
X12850843Y-11013074D02*
X12860367Y-11022598D01*
X12860367Y-11022598D02*
X12869891Y-11041646D01*
X12869891Y-11041646D02*
X12869891Y-11098789D01*
X12869891Y-11098789D02*
X12860367Y-11117836D01*
X12860367Y-11117836D02*
X12850843Y-11127360D01*
X12850843Y-11127360D02*
X12831796Y-11136884D01*
X12831796Y-11136884D02*
X12793701Y-11136884D01*
X12793701Y-11136884D02*
X12774653Y-11127360D01*
X12955605Y-11117836D02*
X12965129Y-11127360D01*
X12965129Y-11127360D02*
X12955605Y-11136884D01*
X12955605Y-11136884D02*
X12946082Y-11127360D01*
X12946082Y-11127360D02*
X12955605Y-11117836D01*
X12955605Y-11117836D02*
X12955605Y-11136884D01*
X12955605Y-11013074D02*
X12965129Y-11022598D01*
X12965129Y-11022598D02*
X12955605Y-11032122D01*
X12955605Y-11032122D02*
X12946082Y-11022598D01*
X12946082Y-11022598D02*
X12955605Y-11013074D01*
X12955605Y-11013074D02*
X12955605Y-11032122D01*
M02*
