G04 #@! TF.GenerationSoftware,KiCad,Pcbnew,8.0.5*
G04 #@! TF.CreationDate,2024-10-02T19:17:24-04:00*
G04 #@! TF.ProjectId,pcb_chip,7063625f-6368-4697-902e-6b696361645f,rev?*
G04 #@! TF.SameCoordinates,Original*
G04 #@! TF.FileFunction,Legend,Top*
G04 #@! TF.FilePolarity,Positive*
%FSLAX46Y46*%
G04 Gerber Fmt 4.6, Leading zero omitted, Abs format (unit mm)*
G04 Created by KiCad (PCBNEW 8.0.5) date 2024-10-02 19:17:24*
%MOMM*%
%LPD*%
G01*
G04 APERTURE LIST*
G04 Aperture macros list*
%AMRoundRect*
0 Rectangle with rounded corners*
0 $1 Rounding radius*
0 $2 $3 $4 $5 $6 $7 $8 $9 X,Y pos of 4 corners*
0 Add a 4 corners polygon primitive as box body*
4,1,4,$2,$3,$4,$5,$6,$7,$8,$9,$2,$3,0*
0 Add four circle primitives for the rounded corners*
1,1,$1+$1,$2,$3*
1,1,$1+$1,$4,$5*
1,1,$1+$1,$6,$7*
1,1,$1+$1,$8,$9*
0 Add four rect primitives between the rounded corners*
20,1,$1+$1,$2,$3,$4,$5,0*
20,1,$1+$1,$4,$5,$6,$7,0*
20,1,$1+$1,$6,$7,$8,$9,0*
20,1,$1+$1,$8,$9,$2,$3,0*%
G04 Aperture macros list end*
%ADD10C,0.150000*%
%ADD11C,0.254000*%
%ADD12C,0.120000*%
%ADD13C,0.200000*%
%ADD14R,1.600000X1.600000*%
%ADD15O,1.600000X1.600000*%
%ADD16RoundRect,0.250000X0.312500X0.625000X-0.312500X0.625000X-0.312500X-0.625000X0.312500X-0.625000X0*%
%ADD17RoundRect,0.150000X-0.150000X0.587500X-0.150000X-0.587500X0.150000X-0.587500X0.150000X0.587500X0*%
%ADD18RoundRect,0.250000X-0.625000X0.312500X-0.625000X-0.312500X0.625000X-0.312500X0.625000X0.312500X0*%
%ADD19RoundRect,0.250000X0.625000X-0.312500X0.625000X0.312500X-0.625000X0.312500X-0.625000X-0.312500X0*%
%ADD20RoundRect,0.250000X-1.050000X-0.550000X1.050000X-0.550000X1.050000X0.550000X-1.050000X0.550000X0*%
%ADD21RoundRect,0.250000X0.450000X-0.262500X0.450000X0.262500X-0.450000X0.262500X-0.450000X-0.262500X0*%
%ADD22R,1.500000X1.500000*%
%ADD23C,1.500000*%
%ADD24C,4.260000*%
%ADD25R,1.700000X1.700000*%
%ADD26O,1.700000X1.700000*%
%ADD27RoundRect,0.150000X0.587500X0.150000X-0.587500X0.150000X-0.587500X-0.150000X0.587500X-0.150000X0*%
%ADD28RoundRect,0.250000X-0.550000X1.050000X-0.550000X-1.050000X0.550000X-1.050000X0.550000X1.050000X0*%
%ADD29R,1.500000X2.000000*%
%ADD30R,3.800000X2.000000*%
G04 APERTURE END LIST*
D10*
X136601295Y-86586819D02*
X136601295Y-87396342D01*
X136601295Y-87396342D02*
X136648914Y-87491580D01*
X136648914Y-87491580D02*
X136696533Y-87539200D01*
X136696533Y-87539200D02*
X136791771Y-87586819D01*
X136791771Y-87586819D02*
X136982247Y-87586819D01*
X136982247Y-87586819D02*
X137077485Y-87539200D01*
X137077485Y-87539200D02*
X137125104Y-87491580D01*
X137125104Y-87491580D02*
X137172723Y-87396342D01*
X137172723Y-87396342D02*
X137172723Y-86586819D01*
X137601295Y-86682057D02*
X137648914Y-86634438D01*
X137648914Y-86634438D02*
X137744152Y-86586819D01*
X137744152Y-86586819D02*
X137982247Y-86586819D01*
X137982247Y-86586819D02*
X138077485Y-86634438D01*
X138077485Y-86634438D02*
X138125104Y-86682057D01*
X138125104Y-86682057D02*
X138172723Y-86777295D01*
X138172723Y-86777295D02*
X138172723Y-86872533D01*
X138172723Y-86872533D02*
X138125104Y-87015390D01*
X138125104Y-87015390D02*
X137553676Y-87586819D01*
X137553676Y-87586819D02*
X138172723Y-87586819D01*
X137755333Y-93774419D02*
X137422000Y-93298228D01*
X137183905Y-93774419D02*
X137183905Y-92774419D01*
X137183905Y-92774419D02*
X137564857Y-92774419D01*
X137564857Y-92774419D02*
X137660095Y-92822038D01*
X137660095Y-92822038D02*
X137707714Y-92869657D01*
X137707714Y-92869657D02*
X137755333Y-92964895D01*
X137755333Y-92964895D02*
X137755333Y-93107752D01*
X137755333Y-93107752D02*
X137707714Y-93202990D01*
X137707714Y-93202990D02*
X137660095Y-93250609D01*
X137660095Y-93250609D02*
X137564857Y-93298228D01*
X137564857Y-93298228D02*
X137183905Y-93298228D01*
X138612476Y-92774419D02*
X138422000Y-92774419D01*
X138422000Y-92774419D02*
X138326762Y-92822038D01*
X138326762Y-92822038D02*
X138279143Y-92869657D01*
X138279143Y-92869657D02*
X138183905Y-93012514D01*
X138183905Y-93012514D02*
X138136286Y-93202990D01*
X138136286Y-93202990D02*
X138136286Y-93583942D01*
X138136286Y-93583942D02*
X138183905Y-93679180D01*
X138183905Y-93679180D02*
X138231524Y-93726800D01*
X138231524Y-93726800D02*
X138326762Y-93774419D01*
X138326762Y-93774419D02*
X138517238Y-93774419D01*
X138517238Y-93774419D02*
X138612476Y-93726800D01*
X138612476Y-93726800D02*
X138660095Y-93679180D01*
X138660095Y-93679180D02*
X138707714Y-93583942D01*
X138707714Y-93583942D02*
X138707714Y-93345847D01*
X138707714Y-93345847D02*
X138660095Y-93250609D01*
X138660095Y-93250609D02*
X138612476Y-93202990D01*
X138612476Y-93202990D02*
X138517238Y-93155371D01*
X138517238Y-93155371D02*
X138326762Y-93155371D01*
X138326762Y-93155371D02*
X138231524Y-93202990D01*
X138231524Y-93202990D02*
X138183905Y-93250609D01*
X138183905Y-93250609D02*
X138136286Y-93345847D01*
X137826761Y-107331657D02*
X137731523Y-107284038D01*
X137731523Y-107284038D02*
X137636285Y-107188800D01*
X137636285Y-107188800D02*
X137493428Y-107045942D01*
X137493428Y-107045942D02*
X137398190Y-106998323D01*
X137398190Y-106998323D02*
X137302952Y-106998323D01*
X137350571Y-107236419D02*
X137255333Y-107188800D01*
X137255333Y-107188800D02*
X137160095Y-107093561D01*
X137160095Y-107093561D02*
X137112476Y-106903085D01*
X137112476Y-106903085D02*
X137112476Y-106569752D01*
X137112476Y-106569752D02*
X137160095Y-106379276D01*
X137160095Y-106379276D02*
X137255333Y-106284038D01*
X137255333Y-106284038D02*
X137350571Y-106236419D01*
X137350571Y-106236419D02*
X137541047Y-106236419D01*
X137541047Y-106236419D02*
X137636285Y-106284038D01*
X137636285Y-106284038D02*
X137731523Y-106379276D01*
X137731523Y-106379276D02*
X137779142Y-106569752D01*
X137779142Y-106569752D02*
X137779142Y-106903085D01*
X137779142Y-106903085D02*
X137731523Y-107093561D01*
X137731523Y-107093561D02*
X137636285Y-107188800D01*
X137636285Y-107188800D02*
X137541047Y-107236419D01*
X137541047Y-107236419D02*
X137350571Y-107236419D01*
X138731523Y-107236419D02*
X138160095Y-107236419D01*
X138445809Y-107236419D02*
X138445809Y-106236419D01*
X138445809Y-106236419D02*
X138350571Y-106379276D01*
X138350571Y-106379276D02*
X138255333Y-106474514D01*
X138255333Y-106474514D02*
X138160095Y-106522133D01*
X138630819Y-101258666D02*
X138154628Y-101591999D01*
X138630819Y-101830094D02*
X137630819Y-101830094D01*
X137630819Y-101830094D02*
X137630819Y-101449142D01*
X137630819Y-101449142D02*
X137678438Y-101353904D01*
X137678438Y-101353904D02*
X137726057Y-101306285D01*
X137726057Y-101306285D02*
X137821295Y-101258666D01*
X137821295Y-101258666D02*
X137964152Y-101258666D01*
X137964152Y-101258666D02*
X138059390Y-101306285D01*
X138059390Y-101306285D02*
X138107009Y-101353904D01*
X138107009Y-101353904D02*
X138154628Y-101449142D01*
X138154628Y-101449142D02*
X138154628Y-101830094D01*
X137630819Y-100925332D02*
X137630819Y-100306285D01*
X137630819Y-100306285D02*
X138011771Y-100639618D01*
X138011771Y-100639618D02*
X138011771Y-100496761D01*
X138011771Y-100496761D02*
X138059390Y-100401523D01*
X138059390Y-100401523D02*
X138107009Y-100353904D01*
X138107009Y-100353904D02*
X138202247Y-100306285D01*
X138202247Y-100306285D02*
X138440342Y-100306285D01*
X138440342Y-100306285D02*
X138535580Y-100353904D01*
X138535580Y-100353904D02*
X138583200Y-100401523D01*
X138583200Y-100401523D02*
X138630819Y-100496761D01*
X138630819Y-100496761D02*
X138630819Y-100782475D01*
X138630819Y-100782475D02*
X138583200Y-100877713D01*
X138583200Y-100877713D02*
X138535580Y-100925332D01*
X120088819Y-99988666D02*
X119612628Y-100321999D01*
X120088819Y-100560094D02*
X119088819Y-100560094D01*
X119088819Y-100560094D02*
X119088819Y-100179142D01*
X119088819Y-100179142D02*
X119136438Y-100083904D01*
X119136438Y-100083904D02*
X119184057Y-100036285D01*
X119184057Y-100036285D02*
X119279295Y-99988666D01*
X119279295Y-99988666D02*
X119422152Y-99988666D01*
X119422152Y-99988666D02*
X119517390Y-100036285D01*
X119517390Y-100036285D02*
X119565009Y-100083904D01*
X119565009Y-100083904D02*
X119612628Y-100179142D01*
X119612628Y-100179142D02*
X119612628Y-100560094D01*
X119422152Y-99131523D02*
X120088819Y-99131523D01*
X119041200Y-99369618D02*
X119755485Y-99607713D01*
X119755485Y-99607713D02*
X119755485Y-98988666D01*
X135875733Y-101400780D02*
X135828114Y-101448400D01*
X135828114Y-101448400D02*
X135685257Y-101496019D01*
X135685257Y-101496019D02*
X135590019Y-101496019D01*
X135590019Y-101496019D02*
X135447162Y-101448400D01*
X135447162Y-101448400D02*
X135351924Y-101353161D01*
X135351924Y-101353161D02*
X135304305Y-101257923D01*
X135304305Y-101257923D02*
X135256686Y-101067447D01*
X135256686Y-101067447D02*
X135256686Y-100924590D01*
X135256686Y-100924590D02*
X135304305Y-100734114D01*
X135304305Y-100734114D02*
X135351924Y-100638876D01*
X135351924Y-100638876D02*
X135447162Y-100543638D01*
X135447162Y-100543638D02*
X135590019Y-100496019D01*
X135590019Y-100496019D02*
X135685257Y-100496019D01*
X135685257Y-100496019D02*
X135828114Y-100543638D01*
X135828114Y-100543638D02*
X135875733Y-100591257D01*
X136256686Y-100591257D02*
X136304305Y-100543638D01*
X136304305Y-100543638D02*
X136399543Y-100496019D01*
X136399543Y-100496019D02*
X136637638Y-100496019D01*
X136637638Y-100496019D02*
X136732876Y-100543638D01*
X136732876Y-100543638D02*
X136780495Y-100591257D01*
X136780495Y-100591257D02*
X136828114Y-100686495D01*
X136828114Y-100686495D02*
X136828114Y-100781733D01*
X136828114Y-100781733D02*
X136780495Y-100924590D01*
X136780495Y-100924590D02*
X136209067Y-101496019D01*
X136209067Y-101496019D02*
X136828114Y-101496019D01*
X139482533Y-104747219D02*
X139149200Y-104271028D01*
X138911105Y-104747219D02*
X138911105Y-103747219D01*
X138911105Y-103747219D02*
X139292057Y-103747219D01*
X139292057Y-103747219D02*
X139387295Y-103794838D01*
X139387295Y-103794838D02*
X139434914Y-103842457D01*
X139434914Y-103842457D02*
X139482533Y-103937695D01*
X139482533Y-103937695D02*
X139482533Y-104080552D01*
X139482533Y-104080552D02*
X139434914Y-104175790D01*
X139434914Y-104175790D02*
X139387295Y-104223409D01*
X139387295Y-104223409D02*
X139292057Y-104271028D01*
X139292057Y-104271028D02*
X138911105Y-104271028D01*
X140387295Y-103747219D02*
X139911105Y-103747219D01*
X139911105Y-103747219D02*
X139863486Y-104223409D01*
X139863486Y-104223409D02*
X139911105Y-104175790D01*
X139911105Y-104175790D02*
X140006343Y-104128171D01*
X140006343Y-104128171D02*
X140244438Y-104128171D01*
X140244438Y-104128171D02*
X140339676Y-104175790D01*
X140339676Y-104175790D02*
X140387295Y-104223409D01*
X140387295Y-104223409D02*
X140434914Y-104318647D01*
X140434914Y-104318647D02*
X140434914Y-104556742D01*
X140434914Y-104556742D02*
X140387295Y-104651980D01*
X140387295Y-104651980D02*
X140339676Y-104699600D01*
X140339676Y-104699600D02*
X140244438Y-104747219D01*
X140244438Y-104747219D02*
X140006343Y-104747219D01*
X140006343Y-104747219D02*
X139911105Y-104699600D01*
X139911105Y-104699600D02*
X139863486Y-104651980D01*
X116254419Y-101919066D02*
X115778228Y-102252399D01*
X116254419Y-102490494D02*
X115254419Y-102490494D01*
X115254419Y-102490494D02*
X115254419Y-102109542D01*
X115254419Y-102109542D02*
X115302038Y-102014304D01*
X115302038Y-102014304D02*
X115349657Y-101966685D01*
X115349657Y-101966685D02*
X115444895Y-101919066D01*
X115444895Y-101919066D02*
X115587752Y-101919066D01*
X115587752Y-101919066D02*
X115682990Y-101966685D01*
X115682990Y-101966685D02*
X115730609Y-102014304D01*
X115730609Y-102014304D02*
X115778228Y-102109542D01*
X115778228Y-102109542D02*
X115778228Y-102490494D01*
X115349657Y-101538113D02*
X115302038Y-101490494D01*
X115302038Y-101490494D02*
X115254419Y-101395256D01*
X115254419Y-101395256D02*
X115254419Y-101157161D01*
X115254419Y-101157161D02*
X115302038Y-101061923D01*
X115302038Y-101061923D02*
X115349657Y-101014304D01*
X115349657Y-101014304D02*
X115444895Y-100966685D01*
X115444895Y-100966685D02*
X115540133Y-100966685D01*
X115540133Y-100966685D02*
X115682990Y-101014304D01*
X115682990Y-101014304D02*
X116254419Y-101585732D01*
X116254419Y-101585732D02*
X116254419Y-100966685D01*
X120038019Y-102579466D02*
X119561828Y-102912799D01*
X120038019Y-103150894D02*
X119038019Y-103150894D01*
X119038019Y-103150894D02*
X119038019Y-102769942D01*
X119038019Y-102769942D02*
X119085638Y-102674704D01*
X119085638Y-102674704D02*
X119133257Y-102627085D01*
X119133257Y-102627085D02*
X119228495Y-102579466D01*
X119228495Y-102579466D02*
X119371352Y-102579466D01*
X119371352Y-102579466D02*
X119466590Y-102627085D01*
X119466590Y-102627085D02*
X119514209Y-102674704D01*
X119514209Y-102674704D02*
X119561828Y-102769942D01*
X119561828Y-102769942D02*
X119561828Y-103150894D01*
X120038019Y-101627085D02*
X120038019Y-102198513D01*
X120038019Y-101912799D02*
X119038019Y-101912799D01*
X119038019Y-101912799D02*
X119180876Y-102008037D01*
X119180876Y-102008037D02*
X119276114Y-102103275D01*
X119276114Y-102103275D02*
X119323733Y-102198513D01*
D11*
X124085048Y-88204318D02*
X123661714Y-87599556D01*
X123359333Y-88204318D02*
X123359333Y-86934318D01*
X123359333Y-86934318D02*
X123843143Y-86934318D01*
X123843143Y-86934318D02*
X123964095Y-86994794D01*
X123964095Y-86994794D02*
X124024572Y-87055270D01*
X124024572Y-87055270D02*
X124085048Y-87176222D01*
X124085048Y-87176222D02*
X124085048Y-87357651D01*
X124085048Y-87357651D02*
X124024572Y-87478603D01*
X124024572Y-87478603D02*
X123964095Y-87539080D01*
X123964095Y-87539080D02*
X123843143Y-87599556D01*
X123843143Y-87599556D02*
X123359333Y-87599556D01*
X124447905Y-86934318D02*
X124871238Y-88204318D01*
X124871238Y-88204318D02*
X125294572Y-86934318D01*
X126383143Y-88204318D02*
X125657428Y-88204318D01*
X126020285Y-88204318D02*
X126020285Y-86934318D01*
X126020285Y-86934318D02*
X125899333Y-87115746D01*
X125899333Y-87115746D02*
X125778381Y-87236699D01*
X125778381Y-87236699D02*
X125657428Y-87297175D01*
D10*
X113464180Y-95456476D02*
X114464180Y-95456476D01*
X114464180Y-95456476D02*
X113749895Y-95789809D01*
X113749895Y-95789809D02*
X114464180Y-96123142D01*
X114464180Y-96123142D02*
X113464180Y-96123142D01*
X114368942Y-96551714D02*
X114416561Y-96599333D01*
X114416561Y-96599333D02*
X114464180Y-96694571D01*
X114464180Y-96694571D02*
X114464180Y-96932666D01*
X114464180Y-96932666D02*
X114416561Y-97027904D01*
X114416561Y-97027904D02*
X114368942Y-97075523D01*
X114368942Y-97075523D02*
X114273704Y-97123142D01*
X114273704Y-97123142D02*
X114178466Y-97123142D01*
X114178466Y-97123142D02*
X114035609Y-97075523D01*
X114035609Y-97075523D02*
X113464180Y-96504095D01*
X113464180Y-96504095D02*
X113464180Y-97123142D01*
X143075819Y-100504523D02*
X142075819Y-100504523D01*
X142075819Y-100504523D02*
X142790104Y-100171190D01*
X142790104Y-100171190D02*
X142075819Y-99837857D01*
X142075819Y-99837857D02*
X143075819Y-99837857D01*
X143075819Y-98837857D02*
X143075819Y-99409285D01*
X143075819Y-99123571D02*
X142075819Y-99123571D01*
X142075819Y-99123571D02*
X142218676Y-99218809D01*
X142218676Y-99218809D02*
X142313914Y-99314047D01*
X142313914Y-99314047D02*
X142361533Y-99409285D01*
X117993056Y-106372819D02*
X117993056Y-105372819D01*
X117993056Y-105753771D02*
X118088294Y-105706152D01*
X118088294Y-105706152D02*
X118278770Y-105706152D01*
X118278770Y-105706152D02*
X118374008Y-105753771D01*
X118374008Y-105753771D02*
X118421627Y-105801390D01*
X118421627Y-105801390D02*
X118469246Y-105896628D01*
X118469246Y-105896628D02*
X118469246Y-106182342D01*
X118469246Y-106182342D02*
X118421627Y-106277580D01*
X118421627Y-106277580D02*
X118374008Y-106325200D01*
X118374008Y-106325200D02*
X118278770Y-106372819D01*
X118278770Y-106372819D02*
X118088294Y-106372819D01*
X118088294Y-106372819D02*
X117993056Y-106325200D01*
X119326389Y-106372819D02*
X119326389Y-105849009D01*
X119326389Y-105849009D02*
X119278770Y-105753771D01*
X119278770Y-105753771D02*
X119183532Y-105706152D01*
X119183532Y-105706152D02*
X118993056Y-105706152D01*
X118993056Y-105706152D02*
X118897818Y-105753771D01*
X119326389Y-106325200D02*
X119231151Y-106372819D01*
X119231151Y-106372819D02*
X118993056Y-106372819D01*
X118993056Y-106372819D02*
X118897818Y-106325200D01*
X118897818Y-106325200D02*
X118850199Y-106229961D01*
X118850199Y-106229961D02*
X118850199Y-106134723D01*
X118850199Y-106134723D02*
X118897818Y-106039485D01*
X118897818Y-106039485D02*
X118993056Y-105991866D01*
X118993056Y-105991866D02*
X119231151Y-105991866D01*
X119231151Y-105991866D02*
X119326389Y-105944247D01*
X119659723Y-105706152D02*
X120040675Y-105706152D01*
X119802580Y-105372819D02*
X119802580Y-106229961D01*
X119802580Y-106229961D02*
X119850199Y-106325200D01*
X119850199Y-106325200D02*
X119945437Y-106372819D01*
X119945437Y-106372819D02*
X120040675Y-106372819D01*
X120231152Y-105706152D02*
X120612104Y-105706152D01*
X120374009Y-105372819D02*
X120374009Y-106229961D01*
X120374009Y-106229961D02*
X120421628Y-106325200D01*
X120421628Y-106325200D02*
X120516866Y-106372819D01*
X120516866Y-106372819D02*
X120612104Y-106372819D01*
X121326390Y-106325200D02*
X121231152Y-106372819D01*
X121231152Y-106372819D02*
X121040676Y-106372819D01*
X121040676Y-106372819D02*
X120945438Y-106325200D01*
X120945438Y-106325200D02*
X120897819Y-106229961D01*
X120897819Y-106229961D02*
X120897819Y-105849009D01*
X120897819Y-105849009D02*
X120945438Y-105753771D01*
X120945438Y-105753771D02*
X121040676Y-105706152D01*
X121040676Y-105706152D02*
X121231152Y-105706152D01*
X121231152Y-105706152D02*
X121326390Y-105753771D01*
X121326390Y-105753771D02*
X121374009Y-105849009D01*
X121374009Y-105849009D02*
X121374009Y-105944247D01*
X121374009Y-105944247D02*
X120897819Y-106039485D01*
X121802581Y-106372819D02*
X121802581Y-105706152D01*
X121802581Y-105896628D02*
X121850200Y-105801390D01*
X121850200Y-105801390D02*
X121897819Y-105753771D01*
X121897819Y-105753771D02*
X121993057Y-105706152D01*
X121993057Y-105706152D02*
X122088295Y-105706152D01*
X122326391Y-105706152D02*
X122564486Y-106372819D01*
X122802581Y-105706152D02*
X122564486Y-106372819D01*
X122564486Y-106372819D02*
X122469248Y-106610914D01*
X122469248Y-106610914D02*
X122421629Y-106658533D01*
X122421629Y-106658533D02*
X122326391Y-106706152D01*
X116221657Y-98190038D02*
X116174038Y-98285276D01*
X116174038Y-98285276D02*
X116078800Y-98380514D01*
X116078800Y-98380514D02*
X115935942Y-98523371D01*
X115935942Y-98523371D02*
X115888323Y-98618609D01*
X115888323Y-98618609D02*
X115888323Y-98713847D01*
X116126419Y-98666228D02*
X116078800Y-98761466D01*
X116078800Y-98761466D02*
X115983561Y-98856704D01*
X115983561Y-98856704D02*
X115793085Y-98904323D01*
X115793085Y-98904323D02*
X115459752Y-98904323D01*
X115459752Y-98904323D02*
X115269276Y-98856704D01*
X115269276Y-98856704D02*
X115174038Y-98761466D01*
X115174038Y-98761466D02*
X115126419Y-98666228D01*
X115126419Y-98666228D02*
X115126419Y-98475752D01*
X115126419Y-98475752D02*
X115174038Y-98380514D01*
X115174038Y-98380514D02*
X115269276Y-98285276D01*
X115269276Y-98285276D02*
X115459752Y-98237657D01*
X115459752Y-98237657D02*
X115793085Y-98237657D01*
X115793085Y-98237657D02*
X115983561Y-98285276D01*
X115983561Y-98285276D02*
X116078800Y-98380514D01*
X116078800Y-98380514D02*
X116126419Y-98475752D01*
X116126419Y-98475752D02*
X116126419Y-98666228D01*
X115221657Y-97856704D02*
X115174038Y-97809085D01*
X115174038Y-97809085D02*
X115126419Y-97713847D01*
X115126419Y-97713847D02*
X115126419Y-97475752D01*
X115126419Y-97475752D02*
X115174038Y-97380514D01*
X115174038Y-97380514D02*
X115221657Y-97332895D01*
X115221657Y-97332895D02*
X115316895Y-97285276D01*
X115316895Y-97285276D02*
X115412133Y-97285276D01*
X115412133Y-97285276D02*
X115554990Y-97332895D01*
X115554990Y-97332895D02*
X116126419Y-97904323D01*
X116126419Y-97904323D02*
X116126419Y-97285276D01*
X134097733Y-107293580D02*
X134050114Y-107341200D01*
X134050114Y-107341200D02*
X133907257Y-107388819D01*
X133907257Y-107388819D02*
X133812019Y-107388819D01*
X133812019Y-107388819D02*
X133669162Y-107341200D01*
X133669162Y-107341200D02*
X133573924Y-107245961D01*
X133573924Y-107245961D02*
X133526305Y-107150723D01*
X133526305Y-107150723D02*
X133478686Y-106960247D01*
X133478686Y-106960247D02*
X133478686Y-106817390D01*
X133478686Y-106817390D02*
X133526305Y-106626914D01*
X133526305Y-106626914D02*
X133573924Y-106531676D01*
X133573924Y-106531676D02*
X133669162Y-106436438D01*
X133669162Y-106436438D02*
X133812019Y-106388819D01*
X133812019Y-106388819D02*
X133907257Y-106388819D01*
X133907257Y-106388819D02*
X134050114Y-106436438D01*
X134050114Y-106436438D02*
X134097733Y-106484057D01*
X135050114Y-107388819D02*
X134478686Y-107388819D01*
X134764400Y-107388819D02*
X134764400Y-106388819D01*
X134764400Y-106388819D02*
X134669162Y-106531676D01*
X134669162Y-106531676D02*
X134573924Y-106626914D01*
X134573924Y-106626914D02*
X134478686Y-106674533D01*
X129960019Y-100787104D02*
X130769542Y-100787104D01*
X130769542Y-100787104D02*
X130864780Y-100739485D01*
X130864780Y-100739485D02*
X130912400Y-100691866D01*
X130912400Y-100691866D02*
X130960019Y-100596628D01*
X130960019Y-100596628D02*
X130960019Y-100406152D01*
X130960019Y-100406152D02*
X130912400Y-100310914D01*
X130912400Y-100310914D02*
X130864780Y-100263295D01*
X130864780Y-100263295D02*
X130769542Y-100215676D01*
X130769542Y-100215676D02*
X129960019Y-100215676D01*
X130960019Y-99215676D02*
X130960019Y-99787104D01*
X130960019Y-99501390D02*
X129960019Y-99501390D01*
X129960019Y-99501390D02*
X130102876Y-99596628D01*
X130102876Y-99596628D02*
X130198114Y-99691866D01*
X130198114Y-99691866D02*
X130245733Y-99787104D01*
D12*
X134713200Y-81982000D02*
X134713200Y-92262000D01*
X134713200Y-92262000D02*
X136363200Y-92262000D01*
X138363200Y-92262000D02*
X140013200Y-92262000D01*
X140013200Y-81982000D02*
X134713200Y-81982000D01*
X140013200Y-92262000D02*
X140013200Y-81982000D01*
X136363200Y-92262000D02*
G75*
G02*
X138363200Y-92262000I1000000J0D01*
G01*
X135397864Y-92816000D02*
X133943736Y-92816000D01*
X135397864Y-94636000D02*
X133943736Y-94636000D01*
X135346000Y-104140000D02*
X135346000Y-103490000D01*
X135346000Y-104140000D02*
X135346000Y-104790000D01*
X138466000Y-104140000D02*
X138466000Y-102465000D01*
X138466000Y-104140000D02*
X138466000Y-104790000D01*
X137012000Y-97164536D02*
X137012000Y-98618664D01*
X138832000Y-97164536D02*
X138832000Y-98618664D01*
X120502000Y-98390064D02*
X120502000Y-96935936D01*
X122322000Y-98390064D02*
X122322000Y-96935936D01*
X130350000Y-96357000D02*
X130850000Y-96357000D01*
X130600000Y-96107000D02*
X130600000Y-96607000D01*
X131090000Y-96721437D02*
X131090000Y-96857000D01*
X131090000Y-96721437D02*
X132154437Y-95657000D01*
X131090000Y-99112563D02*
X131090000Y-98977000D01*
X131090000Y-99112563D02*
X132154437Y-100177000D01*
X132154437Y-95657000D02*
X135610000Y-95657000D01*
X132154437Y-100177000D02*
X135610000Y-100177000D01*
X135610000Y-95657000D02*
X135610000Y-96857000D01*
X135610000Y-100177000D02*
X135610000Y-98977000D01*
X139399600Y-100568136D02*
X139399600Y-102022264D01*
X141219600Y-100568136D02*
X141219600Y-102022264D01*
X116714600Y-101979464D02*
X116714600Y-101525336D01*
X118184600Y-101979464D02*
X118184600Y-101525336D01*
X120502000Y-103089064D02*
X120502000Y-101634936D01*
X122322000Y-103089064D02*
X122322000Y-101634936D01*
D13*
X119991000Y-83255000D02*
X119991000Y-86255000D01*
X119991000Y-94255000D02*
X119991000Y-91255000D01*
X127341000Y-80355000D02*
X127341000Y-80355000D01*
X127341000Y-80355000D02*
X127341000Y-80355000D01*
X127341000Y-80455000D02*
X127341000Y-80455000D01*
X129691000Y-83255000D02*
X119991000Y-83255000D01*
X129691000Y-86255000D02*
X129691000Y-83255000D01*
X129691000Y-91255000D02*
X129691000Y-94255000D01*
X129691000Y-94255000D02*
X119991000Y-94255000D01*
X127341000Y-80355000D02*
G75*
G02*
X127341000Y-80455000I0J-50000D01*
G01*
X127341000Y-80455000D02*
G75*
G02*
X127341000Y-80355000I0J50000D01*
G01*
X127341000Y-80455000D02*
G75*
G02*
X127341000Y-80355000I0J50000D01*
G01*
D12*
X114087600Y-92207000D02*
X114087600Y-89607000D01*
X116747600Y-89607000D02*
X114087600Y-89607000D01*
X116747600Y-92207000D02*
X114087600Y-92207000D01*
X116747600Y-92207000D02*
X116747600Y-89607000D01*
X116747600Y-93477000D02*
X116747600Y-94807000D01*
X116747600Y-94807000D02*
X115417600Y-94807000D01*
X139640000Y-95636000D02*
X139640000Y-93036000D01*
X142300000Y-93036000D02*
X139640000Y-93036000D01*
X142300000Y-95636000D02*
X139640000Y-95636000D01*
X142300000Y-95636000D02*
X142300000Y-93036000D01*
X142300000Y-96906000D02*
X142300000Y-98236000D01*
X142300000Y-98236000D02*
X140970000Y-98236000D01*
X123841200Y-107502000D02*
X123841200Y-106172000D01*
X125171200Y-107502000D02*
X123841200Y-107502000D01*
X126441200Y-104842000D02*
X129041200Y-104842000D01*
X126441200Y-107502000D02*
X126441200Y-104842000D01*
X126441200Y-107502000D02*
X129041200Y-107502000D01*
X129041200Y-107502000D02*
X129041200Y-104842000D01*
X118211600Y-95518800D02*
X117561600Y-95518800D01*
X118211600Y-95518800D02*
X118861600Y-95518800D01*
X118211600Y-98638800D02*
X117561600Y-98638800D01*
X118211600Y-98638800D02*
X119886600Y-98638800D01*
X130124800Y-102690437D02*
X130124800Y-106146000D01*
X130124800Y-106146000D02*
X131324800Y-106146000D01*
X131189237Y-101626000D02*
X130124800Y-102690437D01*
X131189237Y-101626000D02*
X131324800Y-101626000D01*
X133580363Y-101626000D02*
X133444800Y-101626000D01*
X133580363Y-101626000D02*
X134644800Y-102690437D01*
X133944800Y-100886000D02*
X133944800Y-101386000D01*
X134194800Y-101136000D02*
X133694800Y-101136000D01*
X134644800Y-102690437D02*
X134644800Y-106146000D01*
X134644800Y-106146000D02*
X133444800Y-106146000D01*
X122828000Y-97912000D02*
X124088000Y-97912000D01*
X122828000Y-103922000D02*
X122828000Y-97912000D01*
X129648000Y-97912000D02*
X128388000Y-97912000D01*
X129648000Y-101672000D02*
X129648000Y-97912000D01*
%LPC*%
D14*
X141173200Y-90932000D03*
D15*
X141173200Y-88392000D03*
X141173200Y-85852000D03*
X141173200Y-83312000D03*
X133553200Y-83312000D03*
X133553200Y-85852000D03*
X133553200Y-88392000D03*
X133553200Y-90932000D03*
D16*
X136133300Y-93726000D03*
X133208300Y-93726000D03*
D17*
X137856000Y-103202500D03*
X135956000Y-103202500D03*
X136906000Y-105077500D03*
D18*
X137922000Y-96429100D03*
X137922000Y-99354100D03*
D19*
X121412000Y-99125500D03*
X121412000Y-96200500D03*
D20*
X131550000Y-97917000D03*
X135150000Y-97917000D03*
D18*
X140309600Y-99832700D03*
X140309600Y-102757700D03*
D21*
X117449600Y-102664900D03*
X117449600Y-100839900D03*
D19*
X121412000Y-103824500D03*
X121412000Y-100899500D03*
D22*
X127341000Y-81755000D03*
D23*
X124841000Y-81755000D03*
X122341000Y-81755000D03*
D24*
X129241000Y-88755000D03*
X120441000Y-88755000D03*
D25*
X115417600Y-93477000D03*
D26*
X115417600Y-90937000D03*
D25*
X140970000Y-96906000D03*
D26*
X140970000Y-94366000D03*
D25*
X125171200Y-106172000D03*
D26*
X127711200Y-106172000D03*
D27*
X119149100Y-98028800D03*
X119149100Y-96128800D03*
X117274100Y-97078800D03*
D28*
X132384800Y-102086000D03*
X132384800Y-105686000D03*
D29*
X123938000Y-102972000D03*
X126238000Y-102972000D03*
D30*
X126238000Y-96672000D03*
D29*
X128538000Y-102972000D03*
%LPD*%
M02*
